<svg width="39" height="31" viewBox="0 0 39 31" fill="none" xmlns="http://www.w3.org/2000/svg">
<path id="Vector" d="M14.04 23.25L19.5 19.1812L24.8625 23.25L22.815 16.6625L28.275 12.4H21.645L19.5 5.8125L17.355 12.4H10.725L16.0875 16.6625L14.04 23.25ZM3.9 31C2.8275 31 1.90937 30.6206 1.14562 29.8617C0.381875 29.1029 0 28.1906 0 27.125V20.5859C0 20.2307 0.11375 19.924 0.34125 19.6656C0.56875 19.4073 0.86125 19.2458 1.21875 19.1812C1.99875 18.9229 2.64062 18.4547 3.14437 17.7766C3.64812 17.0984 3.9 16.3396 3.9 15.5C3.9 14.6604 3.64812 13.9016 3.14437 13.2234C2.64062 12.5453 1.99875 12.0771 1.21875 11.8187C0.86125 11.7542 0.56875 11.5927 0.34125 11.3344C0.11375 11.076 0 10.7693 0 10.4141V3.875C0 2.80937 0.381875 1.89714 1.14562 1.13828C1.90937 0.379427 2.8275 0 3.9 0H35.1C36.1725 0 37.0906 0.379427 37.8544 1.13828C38.6181 1.89714 39 2.80937 39 3.875V10.4141C39 10.7693 38.8862 11.076 38.6587 11.3344C38.4312 11.5927 38.1387 11.7542 37.7812 11.8187C37.0012 12.0771 36.3594 12.5453 35.8556 13.2234C35.3519 13.9016 35.1 14.6604 35.1 15.5C35.1 16.3396 35.3519 17.0984 35.8556 17.7766C36.3594 18.4547 37.0012 18.9229 37.7812 19.1812C38.1387 19.2458 38.4312 19.4073 38.6587 19.6656C38.8862 19.924 39 20.2307 39 20.5859V27.125C39 28.1906 38.6181 29.1029 37.8544 29.8617C37.0906 30.6206 36.1725 31 35.1 31H3.9Z" fill="#D0FF6A"/>
</svg>
