<svg width="144" height="121" viewBox="0 0 144 121" fill="none" xmlns="http://www.w3.org/2000/svg">
<g id="Group">
<g id="Group_2">
<g id="Group_3">
<g id="Group_4">
<path id="Vector" d="M51.3192 104.95C51.431 104.804 51.5093 104.636 51.5652 104.435C51.185 104.748 50.7937 105.073 50.4136 105.386C50.4136 105.386 50.4136 105.386 50.4248 105.386C50.7937 105.397 51.0956 105.251 51.3192 104.95Z" fill="url(#paint0_linear_507_1429)"/>
<path id="Vector_2" d="M78.2982 56.4478C78.2982 56.7273 78.2423 56.9621 78.1193 57.141C78.0522 57.8901 77.974 58.6392 77.8845 59.3883L78.3094 60.8418C78.3206 60.8865 78.3653 60.9089 78.41 60.9089H79.0585C79.1032 60.9089 79.1368 60.8865 79.1368 60.8418L79.1256 60.8083L78.2647 58.0578C78.2647 58.0355 78.2647 58.0243 78.287 58.0019C78.533 57.8789 78.7343 57.6889 78.8796 57.4093C79.025 57.1298 79.1032 56.8056 79.1032 56.4366C79.1032 56.09 79.0473 55.7881 78.9243 55.5198C78.8013 55.2515 78.6336 55.039 78.4212 54.8937C78.3765 54.8602 78.3318 54.8378 78.287 54.8154C78.2647 55.1956 78.2535 55.5757 78.2311 55.9447C78.2647 56.09 78.2982 56.2577 78.2982 56.4478Z" fill="url(#paint1_linear_507_1429)"/>
<path id="Vector_3" d="M80.7021 54.7595V60.8083C80.7021 60.8642 80.7245 60.8977 80.7804 60.8977H83.4079C83.4638 60.8977 83.4861 60.8642 83.4861 60.8083V60.2492C83.4861 60.1933 83.4638 60.1598 83.4079 60.1598H81.5295C81.5072 60.1598 81.496 60.1486 81.496 60.1262V58.1808C81.496 58.1584 81.5072 58.1473 81.5295 58.1473H82.6811C82.737 58.1473 82.7594 58.1137 82.7594 58.0578V57.4988C82.7594 57.4429 82.737 57.4093 82.6811 57.4093H81.5295C81.5072 57.4093 81.496 57.3982 81.496 57.3758V55.4415C81.496 55.4192 81.5072 55.408 81.5295 55.408H83.4079C83.4638 55.408 83.4861 55.3745 83.4861 55.3186V54.7595C83.4861 54.7036 83.4638 54.6701 83.4079 54.6701H80.7804C80.7357 54.6813 80.7021 54.7036 80.7021 54.7595Z" fill="url(#paint2_linear_507_1429)"/>
<path id="Vector_4" d="M85.7109 59.0529H85.0848C85.0289 59.0529 85.0065 59.0865 85.0065 59.1424V59.3771C85.0065 59.8467 85.1407 60.2381 85.409 60.5288C85.6773 60.8194 86.0351 60.9648 86.4712 60.9648C86.9072 60.9648 87.265 60.8195 87.5445 60.5176C87.824 60.2157 87.9582 59.8132 87.9582 59.3212C87.9582 59.0529 87.9135 58.8069 87.824 58.6169C87.7346 58.4156 87.6004 58.2367 87.4327 58.069C87.265 57.9013 87.0078 57.6889 86.6724 57.4205C86.3258 57.1522 86.091 56.9286 85.968 56.7609C85.845 56.5932 85.7891 56.3919 85.7891 56.1571C85.7891 55.9 85.845 55.6875 85.968 55.5422C86.091 55.3968 86.2475 55.3186 86.4376 55.3186C86.6389 55.3186 86.8066 55.3968 86.9407 55.5645C87.0637 55.7323 87.1308 55.9447 87.1308 56.213V56.4478C87.1308 56.5037 87.1532 56.5373 87.2091 56.5373H87.824C87.8799 56.5373 87.9023 56.5037 87.9023 56.4478V56.2242C87.9023 55.7322 87.7681 55.3297 87.4998 55.0279C87.2314 54.726 86.8737 54.5695 86.4264 54.5695C86.0016 54.5695 85.6438 54.7148 85.3866 54.9943C85.1183 55.2738 84.9841 55.654 84.9841 56.1348C84.9841 56.4366 85.04 56.705 85.1518 56.9286C85.2636 57.1522 85.3978 57.3423 85.5655 57.51C85.7221 57.6665 85.9457 57.8678 86.2364 58.0914C86.4935 58.2926 86.6724 58.4491 86.7954 58.5498C86.9072 58.6504 86.9967 58.7734 87.0749 58.8964C87.142 59.0305 87.1755 59.1759 87.1755 59.3548C87.1755 59.6119 87.1085 59.8132 86.9743 59.9697C86.8401 60.1262 86.6724 60.2045 86.4823 60.2045C86.2811 60.2045 86.1134 60.1263 85.9904 59.9585C85.8674 59.7908 85.8003 59.5784 85.8003 59.2989V59.0976C85.7891 59.0864 85.7668 59.0529 85.7109 59.0529Z" fill="url(#paint3_linear_507_1429)"/>
<path id="Vector_5" d="M91.0106 54.603C90.5522 54.603 90.1832 54.7483 89.9037 55.0502C89.6242 55.3521 89.49 55.7434 89.49 56.2353V59.3436C89.49 59.8355 89.6242 60.2268 89.9037 60.5287C90.1832 60.8306 90.5522 60.9759 91.0106 60.9759C91.469 60.9759 91.8491 60.8306 92.1286 60.5287C92.4081 60.2268 92.5535 59.8355 92.5535 59.3436V56.2353C92.5535 55.7434 92.4081 55.3521 92.1286 55.0502C91.8491 54.7595 91.4801 54.603 91.0106 54.603ZM91.7485 59.3883C91.7485 59.6454 91.6814 59.8467 91.5472 60.0032C91.4131 60.1598 91.2342 60.238 91.0106 60.238C90.7981 60.238 90.6192 60.1598 90.4851 60.0032C90.3509 59.8467 90.2838 59.6343 90.2838 59.3883V56.2018C90.2838 55.9446 90.3509 55.7434 90.4851 55.5869C90.6192 55.4303 90.7869 55.3521 91.0106 55.3521C91.2342 55.3521 91.4131 55.4303 91.5472 55.5869C91.6814 55.7434 91.7485 55.9558 91.7485 56.2018V59.3883Z" fill="url(#paint4_linear_507_1429)"/>
<path id="Vector_6" d="M97.6519 56.9062L99.1389 60.8306C99.1501 60.8753 99.1836 60.8977 99.2284 60.8977H99.8768C99.9327 60.8977 99.9551 60.8642 99.9551 60.8083V54.7595C99.9551 54.7036 99.9216 54.6701 99.8768 54.6701H99.2507C99.1948 54.6701 99.1725 54.7036 99.1725 54.7595V58.6616C99.1725 58.6839 99.1725 58.6951 99.1613 58.6951C99.1501 58.6951 99.1389 58.6951 99.1389 58.6728L97.6519 54.7483C97.6407 54.7036 97.6072 54.6813 97.5624 54.6813H96.914C96.8581 54.6813 96.8357 54.7148 96.8357 54.7707V60.8194C96.8357 60.8753 96.8581 60.9089 96.914 60.9089H97.5401C97.596 60.9089 97.6183 60.8753 97.6183 60.8194L97.6072 56.9062C97.6072 56.8838 97.6072 56.8838 97.6183 56.8838C97.6295 56.8838 97.6407 56.895 97.6519 56.9062Z" fill="url(#paint5_linear_507_1429)"/>
<path id="Vector_7" d="M102.281 60.9088C102.337 60.9088 102.37 60.8865 102.37 60.8306L102.56 59.802C102.56 59.7908 102.56 59.7796 102.571 59.7796C102.583 59.7684 102.594 59.7684 102.605 59.7684H103.947C103.958 59.7684 103.969 59.7684 103.98 59.7796C103.991 59.7908 103.991 59.7908 103.991 59.802L104.17 60.8306C104.181 60.8865 104.215 60.9088 104.26 60.9088H104.908C104.953 60.9088 104.986 60.8865 104.986 60.8306V60.8082L103.723 54.7595C103.723 54.7036 103.69 54.6812 103.634 54.6812H102.896C102.84 54.6812 102.817 54.7036 102.806 54.7595L101.565 60.8082C101.554 60.8418 101.565 60.8641 101.576 60.8753C101.588 60.8977 101.61 60.8977 101.643 60.8977H102.281V60.9088ZM103.276 56.0117C103.276 55.9894 103.287 55.9894 103.287 55.9894C103.287 55.9894 103.298 56.0005 103.298 56.0117L103.846 59.0529C103.846 59.0752 103.835 59.0864 103.824 59.0864H102.717C102.706 59.0864 102.694 59.0752 102.694 59.0529L103.276 56.0117Z" fill="url(#paint6_linear_507_1429)"/>
<path id="Vector_8" d="M107.882 54.603C107.435 54.603 107.066 54.7483 106.786 55.039C106.507 55.3297 106.373 55.721 106.373 56.2018V59.3659C106.373 59.8579 106.507 60.238 106.786 60.5399C107.066 60.8306 107.424 60.9759 107.882 60.9759C108.341 60.9759 108.71 60.8306 108.978 60.5399C109.257 60.2492 109.392 59.8579 109.392 59.3659V59.2318C109.392 59.1759 109.358 59.1423 109.313 59.1423L108.676 59.1088C108.62 59.1088 108.598 59.1423 108.598 59.1982V59.433C108.598 59.679 108.531 59.8691 108.397 60.0256C108.262 60.1709 108.095 60.2492 107.882 60.2492C107.67 60.2492 107.502 60.1709 107.368 60.0256C107.245 59.8802 107.178 59.679 107.178 59.433V56.1571C107.178 55.9111 107.245 55.721 107.368 55.5645C107.491 55.4192 107.67 55.3409 107.882 55.3409C108.095 55.3409 108.262 55.4192 108.397 55.5645C108.531 55.7099 108.598 55.9111 108.598 56.1571V56.3919C108.598 56.4478 108.62 56.4813 108.676 56.4813L109.313 56.4478C109.369 56.4478 109.392 56.4142 109.392 56.3583V56.213C109.392 55.721 109.257 55.3409 108.978 55.0502C108.71 54.7483 108.341 54.603 107.882 54.603Z" fill="url(#paint7_linear_507_1429)"/>
<path id="Vector_9" d="M111.192 60.9088H111.829C111.885 60.9088 111.907 60.8753 111.907 60.8194V54.7707C111.907 54.7148 111.885 54.6812 111.829 54.6812H111.192C111.136 54.6812 111.113 54.7148 111.113 54.7707V60.8194C111.102 60.8753 111.136 60.9088 111.192 60.9088Z" fill="url(#paint8_linear_507_1429)"/>
<path id="Vector_10" d="M115.183 60.9759C115.642 60.9759 116.022 60.8306 116.301 60.5287C116.581 60.2268 116.726 59.8355 116.726 59.3436V56.2353C116.726 55.7434 116.581 55.3521 116.301 55.0502C116.022 54.7483 115.653 54.603 115.183 54.603C114.725 54.603 114.356 54.7483 114.076 55.0502C113.797 55.3521 113.663 55.7434 113.663 56.2353V59.3436C113.663 59.8355 113.797 60.2268 114.076 60.5287C114.356 60.8306 114.725 60.9759 115.183 60.9759ZM114.468 56.2018C114.468 55.9446 114.535 55.7434 114.669 55.5869C114.803 55.4303 114.971 55.3521 115.194 55.3521C115.418 55.3521 115.597 55.4303 115.731 55.5869C115.865 55.7434 115.932 55.9558 115.932 56.2018V59.3883C115.932 59.6454 115.865 59.8467 115.731 60.0032C115.597 60.1598 115.418 60.238 115.194 60.238C114.982 60.238 114.803 60.1598 114.669 60.0032C114.535 59.8467 114.468 59.6343 114.468 59.3883V56.2018Z" fill="url(#paint9_linear_507_1429)"/>
<path id="Vector_11" d="M118.571 60.9089H119.197C119.253 60.9089 119.275 60.8753 119.275 60.8194L119.264 56.9062C119.264 56.8838 119.264 56.8838 119.275 56.8838C119.286 56.8838 119.298 56.895 119.298 56.9062L120.785 60.8306C120.796 60.8753 120.829 60.8977 120.874 60.8977H121.523C121.578 60.8977 121.601 60.8642 121.601 60.8083V54.7595C121.601 54.7036 121.567 54.6701 121.523 54.6701H120.896C120.841 54.6701 120.818 54.7036 120.818 54.7595V58.6616C120.818 58.6839 120.818 58.6951 120.807 58.6951C120.796 58.6951 120.785 58.6951 120.785 58.6728L119.298 54.7483C119.286 54.7036 119.253 54.6813 119.208 54.6813H118.56C118.504 54.6813 118.481 54.7148 118.481 54.7707V60.8194C118.481 60.8753 118.515 60.9089 118.571 60.9089Z" fill="url(#paint10_linear_507_1429)"/>
<path id="Vector_12" d="M123.312 60.9088H123.949C124.005 60.9088 124.038 60.8865 124.038 60.8306L124.228 59.802C124.228 59.7908 124.228 59.7796 124.24 59.7796C124.251 59.7684 124.262 59.7684 124.273 59.7684H125.615C125.626 59.7684 125.637 59.7684 125.648 59.7796C125.66 59.7908 125.66 59.7908 125.66 59.802L125.838 60.8306C125.85 60.8865 125.883 60.9088 125.928 60.9088H126.576C126.621 60.9088 126.655 60.8865 126.655 60.8306V60.8082L125.391 54.7595C125.391 54.7036 125.358 54.6812 125.302 54.6812H124.564C124.508 54.6812 124.486 54.7036 124.474 54.7595L123.233 60.8082C123.222 60.8418 123.233 60.8641 123.245 60.8753C123.267 60.8977 123.289 60.9088 123.312 60.9088ZM124.944 56.0117C124.944 55.9894 124.955 55.9894 124.955 55.9894C124.955 55.9894 124.966 56.0005 124.966 56.0117L125.514 59.0529C125.514 59.0752 125.503 59.0864 125.492 59.0864H124.385C124.374 59.0864 124.363 59.0752 124.363 59.0529L124.944 56.0117Z" fill="url(#paint11_linear_507_1429)"/>
<path id="Vector_13" d="M128.354 60.9088H130.982C131.037 60.9088 131.06 60.8753 131.06 60.8194V60.2604C131.06 60.2045 131.026 60.1709 130.982 60.1709H129.114C129.092 60.1709 129.081 60.1597 129.081 60.1374V54.7707C129.081 54.7148 129.059 54.6812 129.003 54.6812H128.365C128.309 54.6812 128.287 54.7148 128.287 54.7707V60.8194C128.265 60.8753 128.298 60.9088 128.354 60.9088Z" fill="url(#paint12_linear_507_1429)"/>
<path id="Vector_14" d="M135.096 60.9089H136.471C136.93 60.9089 137.299 60.7524 137.578 60.4505C137.846 60.1486 137.992 59.7349 137.992 59.2206V56.3584C137.992 55.844 137.858 55.4304 137.578 55.1285C137.31 54.8266 136.941 54.6701 136.471 54.6701H135.096C135.04 54.6701 135.018 54.7036 135.018 54.7595V60.8083C135.007 60.8753 135.04 60.9089 135.096 60.9089ZM135.812 55.4527C135.812 55.4304 135.823 55.4192 135.845 55.4192H136.46C136.673 55.4192 136.851 55.5086 136.974 55.6875C137.097 55.8664 137.164 56.1012 137.164 56.4031V59.1759C137.164 59.4778 137.097 59.7126 136.963 59.8914C136.84 60.0703 136.661 60.1486 136.449 60.1486L135.834 60.1598C135.812 60.1598 135.8 60.1486 135.8 60.1262V55.4527H135.812Z" fill="url(#paint13_linear_507_1429)"/>
<path id="Vector_15" d="M139.792 60.9088H142.419C142.475 60.9088 142.498 60.8753 142.498 60.8194V60.2604C142.498 60.2045 142.475 60.1709 142.419 60.1709H140.541C140.519 60.1709 140.507 60.1597 140.507 60.1374V58.1919C140.507 58.1696 140.519 58.1584 140.541 58.1584H141.693C141.749 58.1584 141.771 58.1249 141.771 58.069V57.5099C141.771 57.454 141.749 57.4205 141.693 57.4205H140.541C140.519 57.4205 140.507 57.4093 140.507 57.3869V55.4527C140.507 55.4303 140.519 55.4191 140.541 55.4191H142.419C142.475 55.4191 142.498 55.3856 142.498 55.3297V54.7707C142.498 54.7148 142.475 54.6812 142.419 54.6812H139.792C139.736 54.6812 139.714 54.7148 139.714 54.7707V60.8194C139.714 60.8753 139.736 60.9088 139.792 60.9088Z" fill="url(#paint14_linear_507_1429)"/>
<path id="Vector_16" d="M72.3725 78.3284H75.5366C75.6261 78.3284 75.7043 78.306 75.7602 78.2501C75.8161 78.1942 75.8385 78.1271 75.8385 78.0265V69.0931C74.9105 72.2461 73.7254 75.3208 72.3054 78.3172C72.3278 78.3284 72.3501 78.3284 72.3725 78.3284Z" fill="url(#paint15_linear_507_1429)"/>
<path id="Vector_17" d="M76.7664 68.3664V74.2251C76.7664 75.522 77.1689 76.5618 77.9739 77.3333C78.7789 78.1047 79.841 78.4961 81.1604 78.4961C82.0325 78.4961 82.7927 78.3172 83.4524 77.9706C84.1121 77.624 84.6264 77.1209 84.9953 76.4724C85.3643 75.8239 85.5432 75.0748 85.5432 74.2139V74.0126C85.5432 73.9567 85.5208 73.912 85.4649 73.8673C85.409 73.8225 85.3419 73.8114 85.2413 73.8114L82.0772 73.7107C81.8759 73.7107 81.7753 73.8002 81.7753 73.9903V74.5269C81.7753 74.7505 81.7194 74.9294 81.6076 75.0636C81.4958 75.1866 81.3393 75.2537 81.1604 75.2537C80.9703 75.2537 80.8249 75.1866 80.7131 75.0636C80.6013 74.9406 80.5454 74.7617 80.5454 74.5269V68.0869C80.5454 67.8633 80.6013 67.6844 80.7131 67.5502C80.8249 67.416 80.9815 67.3489 81.1604 67.3489C81.3504 67.3489 81.4958 67.416 81.6076 67.5502C81.7194 67.6844 81.7753 67.8633 81.7753 68.0869V68.59C81.7753 68.7801 81.8759 68.8695 82.0772 68.8695L85.2413 68.7689C85.3308 68.7689 85.409 68.7354 85.4649 68.6794C85.5208 68.6235 85.5432 68.5453 85.5432 68.4446V68.344C85.5432 67.0471 85.1407 66.0184 84.3357 65.2582C83.5307 64.4979 82.4685 64.1177 81.1492 64.1177C79.8075 64.1177 78.7453 64.4979 77.9515 65.2582C77.1577 66.0408 76.7664 67.0694 76.7664 68.3664Z" fill="url(#paint16_linear_507_1429)"/>
<path id="Vector_18" d="M86.7284 78.3284H89.8925C89.982 78.3284 90.0602 78.306 90.1161 78.2501C90.172 78.1942 90.1944 78.1271 90.1944 78.0265V64.5985C90.1944 64.5091 90.172 64.4308 90.1161 64.3749C90.0602 64.319 89.9931 64.2966 89.8925 64.2966H86.7284C86.6389 64.2966 86.5607 64.319 86.5048 64.3749C86.4489 64.4308 86.4265 64.4979 86.4265 64.5985V78.0265C86.4265 78.1159 86.4489 78.1942 86.5048 78.2501C86.5607 78.306 86.6389 78.3284 86.7284 78.3284Z" fill="url(#paint17_linear_507_1429)"/>
<path id="Vector_19" d="M93.884 64.5538L91.033 78.0041C90.9882 78.2166 91.0777 78.3284 91.2901 78.3284H94.4431C94.6331 78.3284 94.7338 78.2389 94.7673 78.0489L95.0133 76.5283C95.0356 76.4612 95.0915 76.4277 95.1586 76.4277H96.9252C96.9475 76.4277 96.9811 76.4388 97.0146 76.4612C97.0482 76.4836 97.0593 76.5059 97.0593 76.5506L97.2382 78.0489C97.2494 78.2389 97.3612 78.3284 97.5625 78.3284H100.794C100.984 78.3284 101.073 78.2501 101.073 78.0824V78.0041L98.2221 64.5538C98.1774 64.3749 98.0656 64.2966 97.8867 64.2966H94.2418C94.0406 64.2966 93.9288 64.3861 93.884 64.5538ZM95.5052 73.4201L96.0419 70.0099C96.0531 69.9429 96.0754 69.9093 96.109 69.9093C96.1425 69.9093 96.1649 69.9429 96.1761 70.0099L96.6121 73.4201C96.6121 73.4983 96.5786 73.543 96.5115 73.543H95.6059C95.5388 73.543 95.494 73.4983 95.5052 73.4201Z" fill="url(#paint18_linear_507_1429)"/>
<path id="Vector_20" d="M100.626 64.3749C100.57 64.4308 100.548 64.4979 100.548 64.5985V67.226C100.548 67.3154 100.57 67.3937 100.626 67.4496C100.682 67.5055 100.749 67.5278 100.85 67.5278H103.153C103.231 67.5278 103.276 67.5726 103.276 67.6508V78.0377C103.276 78.1271 103.298 78.2054 103.354 78.2613C103.41 78.3172 103.477 78.3395 103.578 78.3395H106.742C106.831 78.3395 106.91 78.3172 106.966 78.2613C107.021 78.2054 107.044 78.1383 107.044 78.0377V67.6508C107.044 67.5726 107.089 67.5278 107.167 67.5278H109.537C109.627 67.5278 109.705 67.5055 109.761 67.4496C109.817 67.3937 109.839 67.3266 109.839 67.226V64.5985C109.839 64.5091 109.817 64.4308 109.761 64.3749C109.705 64.319 109.638 64.2966 109.537 64.2966H100.85C100.749 64.2966 100.682 64.319 100.626 64.3749Z" fill="url(#paint19_linear_507_1429)"/>
<path id="Vector_21" d="M111.013 78.3284H114.177C114.266 78.3284 114.345 78.306 114.401 78.2501C114.456 78.1942 114.479 78.1271 114.479 78.0265V64.5985C114.479 64.5091 114.456 64.4308 114.401 64.3749C114.345 64.319 114.278 64.2966 114.177 64.2966H111.013C110.923 64.2966 110.845 64.319 110.789 64.3749C110.733 64.4308 110.711 64.4979 110.711 64.5985V78.0265C110.711 78.1159 110.733 78.1942 110.789 78.2501C110.845 78.306 110.912 78.3284 111.013 78.3284Z" fill="url(#paint20_linear_507_1429)"/>
<path id="Vector_22" d="M125.145 64.6209C125.19 64.4084 125.089 64.2966 124.866 64.2966H121.523C121.321 64.2966 121.21 64.3861 121.198 64.5761L120.371 71.6759C120.371 71.7206 120.349 71.7318 120.315 71.7318C120.27 71.7318 120.259 71.7094 120.259 71.6759L119.354 64.5761C119.342 64.3861 119.231 64.2966 119.029 64.2966H115.586C115.396 64.2966 115.306 64.3749 115.306 64.5426V64.6209L118.112 78.0712C118.157 78.2501 118.269 78.3284 118.448 78.3284H121.959C122.149 78.3284 122.261 78.2389 122.294 78.0712L125.145 64.6209Z" fill="url(#paint21_linear_507_1429)"/>
<path id="Vector_23" d="M124.34 78.3284H127.493C127.683 78.3284 127.784 78.2389 127.817 78.0489L128.063 76.5283C128.086 76.4612 128.142 76.4277 128.209 76.4277H129.975C129.998 76.4277 130.031 76.4388 130.065 76.4612C130.098 76.4836 130.109 76.5059 130.109 76.5506L130.288 78.0489C130.299 78.2389 130.411 78.3284 130.612 78.3284H133.844C134.034 78.3284 134.123 78.2501 134.123 78.0824V78.0041L131.261 64.5538C131.216 64.3749 131.104 64.2966 130.926 64.2966H127.281C127.091 64.2966 126.979 64.3861 126.945 64.5538L124.094 78.0041C124.038 78.2277 124.128 78.3284 124.34 78.3284ZM128.555 73.4201L129.092 70.0099C129.103 69.9429 129.125 69.9093 129.159 69.9093C129.193 69.9093 129.215 69.9429 129.226 70.0099L129.662 73.4201C129.662 73.4983 129.629 73.543 129.562 73.543H128.656C128.578 73.543 128.544 73.4983 128.555 73.4201Z" fill="url(#paint22_linear_507_1429)"/>
<path id="Vector_24" d="M135.823 71.6199C136.259 72.0113 136.807 72.4361 137.477 72.9057C138.159 73.3865 138.607 73.7331 138.819 73.9567C139.032 74.1803 139.143 74.4039 139.143 74.6275C139.143 74.8176 139.087 74.963 138.987 75.086C138.875 75.2089 138.741 75.2648 138.584 75.2648C138.428 75.2648 138.294 75.1978 138.182 75.0636C138.07 74.9294 138.025 74.7617 138.025 74.5381V74.035C138.025 73.9455 138.003 73.8673 137.947 73.8114C137.891 73.7555 137.824 73.7331 137.723 73.7331H134.593C134.503 73.7331 134.425 73.7555 134.369 73.8114C134.313 73.8673 134.291 73.9343 134.291 74.035V74.717C134.291 75.4549 134.47 76.1034 134.828 76.6736C135.185 77.2438 135.677 77.691 136.326 78.0041C136.963 78.3283 137.712 78.4849 138.573 78.4849C139.859 78.4849 140.888 78.1271 141.681 77.4004C142.475 76.6736 142.867 75.7121 142.867 74.4934C142.867 73.8337 142.744 73.2635 142.498 72.7827C142.252 72.2908 141.905 71.8547 141.48 71.4746C141.044 71.0833 140.396 70.5801 139.546 69.954C138.909 69.4844 138.473 69.1267 138.26 68.8807C138.048 68.6347 137.936 68.3775 137.936 68.1092C137.936 67.8856 137.992 67.7067 138.081 67.5725C138.182 67.4384 138.316 67.3713 138.495 67.3713C138.674 67.3713 138.808 67.4384 138.92 67.5614C139.032 67.6844 139.076 67.8521 139.076 68.0533V68.5788C139.076 68.6682 139.099 68.7465 139.155 68.8024C139.21 68.8583 139.278 68.8807 139.378 68.8807H142.486C142.576 68.8807 142.654 68.8583 142.71 68.8024C142.766 68.7465 142.788 68.6794 142.788 68.5788V68.1428C142.788 67.3489 142.609 66.6557 142.252 66.052C141.894 65.4482 141.391 64.9786 140.753 64.6432C140.105 64.3078 139.356 64.1401 138.495 64.1401C137.656 64.1401 136.907 64.3078 136.259 64.6432C135.61 64.9786 135.107 65.4482 134.761 66.052C134.403 66.6557 134.224 67.3489 134.224 68.1428C134.224 68.903 134.38 69.5851 134.705 70.1665C135.007 70.7367 135.387 71.2286 135.823 71.6199Z" fill="url(#paint23_linear_507_1429)"/>
<path id="Vector_25" d="M51.5652 104.446C51.5093 104.636 51.431 104.815 51.3192 104.961C51.0956 105.251 50.7937 105.397 50.4136 105.397C50.4136 105.397 50.4136 105.397 50.4024 105.397C48.3116 107.085 46.1202 108.684 43.8394 110.227C44.3089 110.64 44.8233 110.998 45.3823 111.311C46.8246 112.105 48.5017 112.508 50.4136 112.508C52.2919 112.508 53.9579 112.116 55.4002 111.311C56.8425 110.517 57.9605 109.399 58.7544 107.957C59.5482 106.515 59.9507 104.86 59.9507 102.971V96.4969C57.3791 99.2921 54.5728 101.942 51.5652 104.446Z" fill="url(#paint24_linear_507_1429)"/>
<path id="Vector_26" d="M62.8466 94.149C63.551 95.4459 64.3784 96.5193 65.3399 97.369C66.2903 98.2187 67.5089 99.1579 68.9736 100.187C70.4718 101.249 71.4557 102.02 71.9253 102.501C72.3949 102.982 72.6297 103.474 72.6297 103.977C72.6297 104.39 72.5067 104.726 72.2719 104.994C72.0371 105.263 71.7464 105.386 71.3886 105.386C71.0309 105.386 70.7402 105.24 70.5054 104.95C70.2706 104.659 70.1476 104.279 70.1476 103.798V102.691C70.1476 102.49 70.0917 102.322 69.9687 102.21C69.8457 102.098 69.6892 102.031 69.4879 102.031H62.6118C62.4106 102.031 62.2428 102.087 62.131 102.21C62.0081 102.333 61.9521 102.49 61.9521 102.691V104.189C61.9521 105.81 62.3435 107.242 63.1261 108.494C63.9088 109.746 65.0045 110.719 66.4132 111.423C67.822 112.127 69.4656 112.485 71.3551 112.485C74.1726 112.485 76.4535 111.691 78.1865 110.104C79.9195 108.516 80.7916 106.381 80.7916 103.708C80.7916 102.266 80.5232 101.014 79.9754 99.9406C79.4275 98.8672 78.6784 97.9057 77.7281 97.056C76.7777 96.2062 75.3578 95.0882 73.4682 93.7018C72.0595 92.6731 71.1203 91.8905 70.6507 91.3426C70.1811 90.7948 69.9463 90.2358 69.9463 89.6432C69.9463 89.14 70.0581 88.7487 70.2817 88.4468C70.5054 88.1561 70.8072 88.0108 71.1874 88.0108C71.5675 88.0108 71.8806 88.1561 72.1154 88.4245C72.3502 88.704 72.4732 89.0618 72.4732 89.509V90.6606C72.4732 90.8619 72.5291 91.0296 72.652 91.1414C72.7639 91.2644 72.9316 91.3203 73.1328 91.3203H79.9642C80.1655 91.3203 80.3332 91.2644 80.445 91.1414C80.5568 91.0296 80.6239 90.8619 80.6239 90.6606V89.6879C80.6239 87.9549 80.2325 86.4231 79.4499 85.1038C78.6672 83.7845 77.5715 82.7559 76.1404 82.018C74.7093 81.28 73.0546 80.9111 71.1762 80.9111C71.1203 80.9111 71.0532 80.9111 70.9973 80.9111C68.6717 85.3274 65.8318 89.5425 62.5335 93.5117C62.6454 93.7353 62.7348 93.9477 62.8466 94.149Z" fill="url(#paint25_linear_507_1429)"/>
<path id="Vector_27" d="M88.3943 111.971C88.5061 112.094 88.6739 112.15 88.8751 112.15H95.8407C96.0419 112.15 96.2096 112.094 96.3214 111.971C96.4332 111.859 96.5003 111.691 96.5003 111.49V88.6369C96.5003 88.458 96.5898 88.3686 96.7687 88.3686H101.979C102.18 88.3686 102.348 88.3127 102.46 88.1897C102.571 88.0779 102.639 87.9102 102.639 87.7089V81.9285C102.639 81.7273 102.583 81.5596 102.46 81.4478C102.337 81.3359 102.18 81.2689 101.979 81.2689H82.8711C82.6698 81.2689 82.5021 81.3248 82.3903 81.4478C82.2673 81.5707 82.2114 81.7273 82.2114 81.9285V87.7089C82.2114 87.9102 82.2673 88.0779 82.3903 88.1897C82.5021 88.3127 82.6698 88.3686 82.8711 88.3686H87.9471C88.126 88.3686 88.2154 88.458 88.2154 88.6369V111.479C88.2154 111.691 88.2713 111.848 88.3943 111.971Z" fill="url(#paint26_linear_507_1429)"/>
<path id="Vector_28" d="M113.137 88.3686H121.556C121.757 88.3686 121.925 88.3127 122.037 88.1897C122.149 88.0779 122.216 87.9102 122.216 87.7089V81.9285C122.216 81.7273 122.16 81.5596 122.037 81.4478C121.914 81.3359 121.757 81.2689 121.556 81.2689H105.232C105.031 81.2689 104.863 81.3248 104.752 81.4478C104.629 81.5707 104.573 81.7273 104.573 81.9285V111.479C104.573 111.68 104.629 111.848 104.752 111.96C104.863 112.083 105.031 112.139 105.232 112.139H121.556C121.757 112.139 121.925 112.083 122.037 111.96C122.149 111.848 122.216 111.68 122.216 111.479V105.699C122.216 105.497 122.16 105.33 122.037 105.218C121.914 105.106 121.757 105.039 121.556 105.039H113.137C112.958 105.039 112.869 104.95 112.869 104.771V100.488C112.869 100.31 112.958 100.22 113.137 100.22H117.509C117.71 100.22 117.878 100.164 117.99 100.041C118.101 99.9294 118.168 99.7617 118.168 99.5604V93.78C118.168 93.5788 118.113 93.4111 117.99 93.2993C117.867 93.1875 117.71 93.1204 117.509 93.1204H113.137C112.958 93.1204 112.869 93.0309 112.869 92.852V88.6146C112.869 88.458 112.958 88.3686 113.137 88.3686Z" fill="url(#paint27_linear_507_1429)"/>
<path id="Vector_29" d="M143.962 111.39L140.384 98.912C140.351 98.7666 140.396 98.6436 140.519 98.5542C141.581 97.7604 142.386 96.7205 142.945 95.446C143.504 94.1714 143.783 92.7179 143.783 91.0967C143.783 89.1848 143.403 87.4853 142.632 85.9983C141.871 84.5113 140.798 83.3485 139.434 82.5099C138.07 81.6714 136.505 81.2577 134.738 81.2577H124.81C124.609 81.2577 124.441 81.3136 124.329 81.4366C124.206 81.5596 124.15 81.7161 124.15 81.9173V111.468C124.15 111.669 124.206 111.837 124.329 111.949C124.441 112.072 124.609 112.128 124.81 112.128H131.775C131.977 112.128 132.144 112.072 132.256 111.949C132.368 111.837 132.435 111.669 132.435 111.468V100.533C132.435 100.354 132.491 100.265 132.614 100.265C132.67 100.265 132.726 100.343 132.793 100.488L135.487 111.557C135.577 111.937 135.812 112.128 136.192 112.128H143.381C143.795 112.128 143.996 111.949 143.996 111.602C144.007 111.524 143.996 111.457 143.962 111.39ZM134.872 93.2434C134.459 93.7241 133.933 93.9701 133.285 93.9701H132.715C132.536 93.9701 132.446 93.8807 132.446 93.7018V88.6257C132.446 88.4469 132.536 88.3574 132.715 88.3574H133.285C133.956 88.3574 134.492 88.6034 134.895 89.0842C135.286 89.5649 135.487 90.2693 135.487 91.1749C135.499 92.0694 135.286 92.7626 134.872 93.2434Z" fill="url(#paint28_linear_507_1429)"/>
<path id="Vector_30" d="M72.8646 60.976C73.3118 60.976 73.6808 60.8306 73.9603 60.5511C74.2398 60.2716 74.374 59.8915 74.374 59.4219V57.7783C74.374 57.7224 74.3404 57.6889 74.2957 57.6889H72.8981C72.8422 57.6889 72.8198 57.7224 72.8198 57.7783V58.3262C72.8198 58.3821 72.8422 58.4156 72.8981 58.4156H73.5354C73.5578 58.4156 73.5689 58.4268 73.5689 58.4492V59.4331C73.5689 59.679 73.5019 59.8691 73.3677 60.0256C73.2335 60.171 73.0658 60.2492 72.8534 60.2492C72.641 60.2492 72.4732 60.171 72.3391 60.0256C72.2049 59.8803 72.1378 59.679 72.1378 59.4331V56.1571C72.1378 55.9112 72.2049 55.7211 72.3391 55.5646C72.4732 55.4192 72.641 55.3409 72.8534 55.3409C73.0658 55.3409 73.2335 55.4192 73.3677 55.5646C73.5019 55.7099 73.5689 55.9112 73.5689 56.1571V56.5485C73.5689 56.6044 73.5913 56.6379 73.6472 56.6379H74.2845C74.3404 56.6379 74.3628 56.6044 74.3628 56.5485V56.1795C74.3628 55.7099 74.2286 55.3298 73.9491 55.0391C73.6696 54.7595 73.3006 54.6142 72.8534 54.6142C72.4062 54.6142 72.0372 54.7595 71.7577 55.0391C71.4782 55.3186 71.344 55.6987 71.344 56.1683V59.4219C71.344 59.8915 71.4782 60.2716 71.7577 60.5511C72.0484 60.8306 72.4062 60.976 72.8646 60.976Z" fill="url(#paint29_linear_507_1429)"/>
<path id="Vector_31" d="M76.1627 54.6701C76.1068 54.6701 76.0845 54.7036 76.0845 54.7595V60.8194C76.0845 60.8753 76.1068 60.9089 76.1627 60.9089H76.8C76.8559 60.9089 76.8783 60.8753 76.8783 60.8194V58.1808C76.8783 58.1584 76.8895 58.1473 76.9118 58.1473H77.4932C77.5156 58.1473 77.5268 58.1584 77.5268 58.1696L77.8846 59.3883C77.974 58.6392 78.0523 57.8901 78.1194 57.141C78.1082 57.1634 78.097 57.1745 78.0858 57.1969C77.9516 57.387 77.7616 57.4764 77.538 57.4764H76.923C76.9007 57.4764 76.8895 57.4652 76.8895 57.4429V55.4527C76.8895 55.4304 76.9007 55.4192 76.923 55.4192H77.538C77.7616 55.4192 77.9516 55.5086 78.0858 55.6987C78.1417 55.777 78.1864 55.8664 78.22 55.9559C78.2423 55.5757 78.2647 55.1956 78.2759 54.8266C78.0858 54.726 77.8846 54.6813 77.6609 54.6813H76.1627V54.6701Z" fill="url(#paint30_linear_507_1429)"/>
<path id="Vector_32" d="M60.1408 64.2966H56.9767C56.8872 64.2966 56.809 64.319 56.7531 64.3749C56.6972 64.4308 56.6748 64.4979 56.6748 64.5985V78.0265C56.6748 78.1159 56.6972 78.1942 56.7531 78.2501C56.809 78.306 56.8761 78.3284 56.9767 78.3284H60.1408C60.2303 78.3284 60.3085 78.306 60.3644 78.2501C60.4203 78.1942 60.4427 78.1271 60.4427 78.0265V64.5985C60.4427 64.5091 60.4203 64.4308 60.3644 64.3749C60.3085 64.319 60.2414 64.2966 60.1408 64.2966Z" fill="url(#paint31_linear_507_1429)"/>
<path id="Vector_33" d="M61.5719 64.3749C61.516 64.4308 61.4937 64.4979 61.4937 64.5985V78.0265C61.4937 78.1159 61.516 78.1942 61.5719 78.2501C61.6278 78.306 61.6949 78.3284 61.7955 78.3284H64.9261C65.0156 78.3284 65.0938 78.306 65.1497 78.2501C65.2056 78.1942 65.228 78.1271 65.228 78.0265L65.1833 71.933C65.1833 71.8883 65.2056 71.8659 65.2392 71.8659C65.2839 71.8548 65.3063 71.8771 65.3174 71.9107L66.838 78.0712C66.8827 78.2501 66.9834 78.3284 67.1623 78.3284H70.7289C70.8183 78.3284 70.8966 78.306 70.9525 78.2501C71.0084 78.1942 71.0308 78.1271 71.0308 78.0265V64.5985C71.0308 64.5091 71.0084 64.4308 70.9525 64.3749C70.8966 64.319 70.8295 64.2966 70.7289 64.2966H67.5983C67.5088 64.2966 67.4306 64.319 67.3747 64.3749C67.3188 64.4308 67.2964 64.4979 67.2964 64.5985L67.3188 70.6696C67.3188 70.7255 67.2964 70.7479 67.2629 70.7479C67.2182 70.7479 67.1958 70.7255 67.1846 70.6696L65.6417 64.5538C65.597 64.3749 65.4963 64.2966 65.3174 64.2966H61.7843C61.6949 64.2966 61.6166 64.319 61.5719 64.3749Z" fill="url(#paint32_linear_507_1429)"/>
<path id="Vector_34" d="M75.7602 64.3749C75.7043 64.319 75.6372 64.2966 75.5366 64.2966H72.3724C72.283 64.2966 72.2047 64.319 72.1488 64.3749C72.0929 64.4308 72.0706 64.4979 72.0706 64.5985V78.0265C72.0706 78.1159 72.0929 78.1942 72.1488 78.2501C72.1935 78.2948 72.2495 78.306 72.3054 78.3172C73.7253 75.3208 74.8993 72.2461 75.8384 69.0931V64.5873C75.8384 64.5091 75.8161 64.4308 75.7602 64.3749Z" fill="url(#paint33_linear_507_1429)"/>
<path id="Vector_35" d="M9.6601 112.496C11.572 112.496 13.2603 112.116 14.7138 111.345C16.1672 110.585 17.2965 109.489 18.1127 108.058C18.9177 106.627 19.3202 104.983 19.3202 103.094V102.657C19.3202 102.546 19.2643 102.434 19.1413 102.344C19.0183 102.255 18.8618 102.21 18.6605 102.21L11.695 101.987C11.2589 101.987 11.0353 102.188 11.0353 102.602V103.798C11.0353 104.301 10.9123 104.692 10.6552 104.972C10.4092 105.251 10.0738 105.386 9.6601 105.386C9.24641 105.386 8.92217 105.251 8.66502 104.972C8.41904 104.692 8.28487 104.301 8.28487 103.798V89.6432C8.28487 89.1401 8.40786 88.7487 8.66502 88.4469C8.91099 88.1562 9.24641 88.0108 9.6601 88.0108C10.0738 88.0108 10.398 88.1562 10.6552 88.4469C10.9012 88.7375 11.0353 89.1401 11.0353 89.6432V90.7501C11.0353 91.1638 11.2589 91.365 11.695 91.365L18.6605 91.1414C18.8618 91.1414 19.0295 91.0743 19.1413 90.9401C19.2531 90.806 19.3202 90.6383 19.3202 90.437V90.2134C19.3202 87.3623 18.4369 85.0927 16.6704 83.4156C14.9038 81.7385 12.5671 80.8999 9.6601 80.8999C6.71958 80.8999 4.37164 81.7385 2.62746 83.4156C0.872092 85.0927 0 87.3511 0 90.2134V103.094C0 105.945 0.883272 108.225 2.64982 109.925C4.40518 111.647 6.75312 112.496 9.6601 112.496Z" fill="url(#paint34_linear_507_1429)"/>
<path id="Vector_36" d="M38.4168 105.039H29.8188C29.6399 105.039 29.5505 104.95 29.5505 104.771V81.9285C29.5505 81.7273 29.4946 81.5596 29.3716 81.4478C29.2486 81.3359 29.0921 81.2689 28.8908 81.2689H21.9253C21.724 81.2689 21.5563 81.3248 21.4445 81.4478C21.3215 81.5707 21.2656 81.7273 21.2656 81.9285V111.479C21.2656 111.68 21.3215 111.848 21.4445 111.96C21.5563 112.083 21.724 112.139 21.9253 112.139H38.4168C38.618 112.139 38.7857 112.083 38.8975 111.96C39.0093 111.848 39.0764 111.68 39.0764 111.479V105.699C39.0764 105.497 39.0205 105.33 38.8975 105.218C38.7857 105.095 38.618 105.039 38.4168 105.039Z" fill="url(#paint35_linear_507_1429)"/>
<path id="Vector_37" d="M49.4857 104.95C49.2509 104.659 49.1279 104.256 49.1279 103.753V81.9285C49.1279 81.7273 49.072 81.5596 48.949 81.4478C48.826 81.3359 48.6695 81.2689 48.4682 81.2689H41.5027C41.3014 81.2689 41.1337 81.3248 41.0219 81.4478C40.8989 81.5707 40.843 81.7273 40.843 81.9285V102.971C40.843 104.849 41.2455 106.515 42.0394 107.957C42.5201 108.829 43.1239 109.589 43.8506 110.227C46.1315 108.695 48.3229 107.085 50.4137 105.397C50.0223 105.397 49.7205 105.24 49.4857 104.95Z" fill="url(#paint36_linear_507_1429)"/>
<path id="Vector_38" d="M59.7606 81.4478C59.6376 81.3359 59.4811 81.2689 59.2798 81.2689H52.3143C52.113 81.2689 51.9453 81.3248 51.8335 81.4478C51.7105 81.5707 51.6546 81.7273 51.6546 81.9285V103.764C51.6546 104.022 51.6211 104.245 51.5652 104.446C54.5728 101.942 57.3791 99.2921 59.9395 96.4969V81.9285C59.9395 81.7273 59.8836 81.5596 59.7606 81.4478Z" fill="url(#paint37_linear_507_1429)"/>
<path id="Vector_39" d="M62.9581 85.1038C62.1755 86.4231 61.7842 87.9549 61.7842 89.6879C61.7842 91.0967 62.0413 92.3713 62.5333 93.5117C65.8316 89.5425 68.6715 85.3274 70.9971 80.9111C69.2193 80.9334 67.6428 81.3024 66.2564 82.0068C64.8477 82.7559 63.7408 83.7845 62.9581 85.1038Z" fill="url(#paint38_linear_507_1429)"/>
<path id="Vector_40" d="M106.585 27.5905C103.723 25.2314 99.4967 25.2985 96.7128 27.747C96.109 28.2837 95.6059 28.8763 95.2146 29.5247C94.4319 30.7993 93.0008 31.5261 91.5026 31.4814L86.5384 31.3137C84.9507 31.2577 83.5643 30.2291 83.0612 28.7309C82.5804 27.2886 81.7419 25.9358 80.5791 24.7953C79.4945 23.7443 78.2199 22.9952 76.8783 22.548C75.5366 22.1008 74.6086 20.8597 74.5862 19.4398L74.4632 12.586C74.4409 11.591 74.9775 10.6741 75.8385 10.1822C76.4422 9.83559 76.9901 9.366 77.4485 8.76225C78.9914 6.73855 78.9243 3.85393 77.2696 1.91968C75.0334 -0.696598 70.9972 -0.629513 68.8394 2.06503C67.2517 4.05519 67.2741 6.95098 68.8953 8.9076C69.376 9.48899 69.9462 9.93622 70.5612 10.2716C71.4445 10.73 71.9923 11.6357 72.0147 12.6308L72.1153 19.6299C72.1377 20.7032 71.6345 21.6871 70.8183 22.3132C73.9713 28.2054 76.1962 34.4666 77.3814 40.9737C78.2088 40.6495 79.0026 40.2023 79.7293 39.6432L83.3966 43.9254C82.0326 45.7703 82.2114 48.3753 83.9109 50.0077C85.7557 51.7855 88.685 51.7295 90.4628 49.8959C92.2405 48.0511 92.1846 45.1218 90.351 43.344C89.0205 42.0583 87.1086 41.734 85.4874 42.349L81.194 38.268C81.8089 37.5525 82.3121 36.781 82.681 35.9648C83.3183 34.5672 84.7718 33.7287 86.3036 33.7734L90.9659 33.9299C92.643 33.9858 94.0853 35.0368 94.7561 36.5686C95.2034 37.586 95.8742 38.514 96.7687 39.2966C99.6309 41.7676 103.958 41.7452 106.787 39.2407C110.32 36.1102 110.23 30.5981 106.585 27.5905Z" fill="url(#paint39_linear_507_1429)"/>
</g>
<g id="Group_5">
<path id="Vector_41" d="M59.3247 56.4702L59.962 56.4366C60.0179 56.4366 60.0403 56.4031 60.0403 56.3472V56.2018C60.0403 55.7099 59.9061 55.3297 59.6266 55.039C59.3471 54.7483 58.9893 54.603 58.5309 54.603C58.0836 54.603 57.7147 54.7483 57.4352 55.039C57.1557 55.3297 57.0215 55.7211 57.0215 56.2018V59.366C57.0215 59.8579 57.1557 60.2381 57.4352 60.5399C57.7147 60.8306 58.0725 60.976 58.5309 60.976C58.9893 60.976 59.3582 60.8306 59.6266 60.5399C59.9061 60.2492 60.0403 59.8579 60.0403 59.366V59.2318C60.0403 59.1759 60.0067 59.1424 59.962 59.1424L59.3247 59.1088C59.2688 59.1088 59.2464 59.1424 59.2464 59.1983V59.433C59.2464 59.679 59.1794 59.8691 59.0452 60.0256C58.911 60.171 58.7433 60.2492 58.5309 60.2492C58.3184 60.2492 58.1507 60.171 58.0166 60.0256C57.8936 59.8803 57.8265 59.679 57.8265 59.433V56.1571C57.8265 55.9111 57.8936 55.7211 58.0166 55.5645C58.1396 55.4192 58.3184 55.3409 58.5309 55.3409C58.7433 55.3409 58.911 55.4192 59.0452 55.5645C59.1794 55.7099 59.2464 55.9111 59.2464 56.1571V56.3919C59.2464 56.4478 59.2688 56.4702 59.3247 56.4702Z" fill="#00417A"/>
<path id="Vector_42" d="M62.0526 55.0502C61.7731 55.3521 61.6389 55.7434 61.6389 56.2354V59.3436C61.6389 59.8356 61.7731 60.2269 62.0526 60.5288C62.3321 60.8306 62.7011 60.976 63.1595 60.976C63.6179 60.976 63.998 60.8306 64.2776 60.5288C64.5571 60.2269 64.7024 59.8356 64.7024 59.3436V56.2354C64.7024 55.7434 64.5571 55.3521 64.2776 55.0502C63.998 54.7483 63.6291 54.603 63.1595 54.603C62.7011 54.603 62.3321 54.7595 62.0526 55.0502ZM63.8974 56.2018V59.3883C63.8974 59.6455 63.8303 59.8467 63.6962 60.0033C63.562 60.1598 63.3831 60.2381 63.1595 60.2381C62.9471 60.2381 62.7682 60.1598 62.634 60.0033C62.4998 59.8467 62.4327 59.6343 62.4327 59.3883V56.2018C62.4327 55.9447 62.4998 55.7434 62.634 55.5869C62.7682 55.4304 62.9359 55.3521 63.1595 55.3521C63.3831 55.3521 63.562 55.4304 63.6962 55.5869C63.8303 55.7322 63.8974 55.9447 63.8974 56.2018Z" fill="#00417A"/>
<path id="Vector_43" d="M67.2852 56.9062L68.7722 60.8306C68.7834 60.8753 68.8169 60.8977 68.8617 60.8977H69.5101C69.566 60.8977 69.5884 60.8641 69.5884 60.8082V54.7595C69.5884 54.7036 69.5549 54.67 69.5101 54.67H68.884C68.8281 54.67 68.8058 54.7036 68.8058 54.7595V58.6615C68.8058 58.6839 68.8058 58.6951 68.7946 58.6951C68.7834 58.6951 68.7722 58.6951 68.7722 58.6727L67.2852 54.7483C67.274 54.7036 67.2405 54.6812 67.1957 54.6812H66.5473C66.4914 54.6812 66.469 54.7148 66.469 54.7707V60.8194C66.469 60.8753 66.4914 60.9089 66.5473 60.9089H67.1734C67.2293 60.9089 67.2516 60.8753 67.2516 60.8194L67.2405 56.9062C67.2405 56.8838 67.2405 56.8838 67.2516 56.8838C67.274 56.8838 67.2852 56.895 67.2852 56.9062Z" fill="#00417A"/>
<path id="Vector_44" d="M73.9491 60.5511C74.2286 60.2716 74.3628 59.8914 74.3628 59.4218V57.7783C74.3628 57.7224 74.3292 57.6888 74.2845 57.6888H72.8981C72.8422 57.6888 72.8198 57.7224 72.8198 57.7783V58.3261C72.8198 58.382 72.8422 58.4156 72.8981 58.4156H73.5354C73.5578 58.4156 73.5689 58.4267 73.5689 58.4491V59.433C73.5689 59.679 73.5019 59.869 73.3677 60.0256C73.2335 60.1709 73.0658 60.2492 72.8534 60.2492C72.641 60.2492 72.4732 60.1709 72.3391 60.0256C72.2049 59.8802 72.1378 59.679 72.1378 59.433V56.1571C72.1378 55.9111 72.2049 55.721 72.3391 55.5645C72.4732 55.4191 72.641 55.3409 72.8534 55.3409C73.0658 55.3409 73.2335 55.4191 73.3677 55.5645C73.5019 55.7098 73.5689 55.9111 73.5689 56.1571V56.5484C73.5689 56.6043 73.5913 56.6378 73.6472 56.6378H74.2845C74.3404 56.6378 74.3628 56.6043 74.3628 56.5484V56.1794C74.3628 55.7098 74.2286 55.3297 73.9491 55.039C73.6696 54.7595 73.3006 54.6141 72.8534 54.6141C72.4062 54.6141 72.0372 54.7595 71.7577 55.039C71.4782 55.3185 71.344 55.6987 71.344 56.1682V59.4218C71.344 59.8914 71.4782 60.2716 71.7577 60.5511C72.0372 60.8306 72.395 60.9759 72.8534 60.9759C73.3118 60.9759 73.6696 60.8306 73.9491 60.5511Z" fill="#00417A"/>
<path id="Vector_45" d="M76.923 55.408H77.538C77.7616 55.408 77.9516 55.4974 78.0858 55.6875C78.1417 55.7657 78.1864 55.8552 78.22 55.9446C78.2423 55.5645 78.2647 55.1844 78.2759 54.8154C78.0858 54.7148 77.8846 54.67 77.6609 54.67H76.1627C76.1068 54.67 76.0845 54.7036 76.0845 54.7595V60.8194C76.0845 60.8753 76.1068 60.9089 76.1627 60.9089H76.8C76.8559 60.9089 76.8783 60.8753 76.8783 60.8194V58.1808C76.8783 58.1584 76.8895 58.1472 76.9118 58.1472H77.4932C77.5156 58.1472 77.5268 58.1584 77.5268 58.1696L77.8846 59.3883C77.974 58.6392 78.0523 57.8901 78.1194 57.141C78.1082 57.1633 78.097 57.1745 78.0858 57.1969C77.9516 57.3869 77.7616 57.4764 77.538 57.4764H76.923C76.9007 57.4764 76.8895 57.4652 76.8895 57.4428V55.4527C76.8895 55.4191 76.9007 55.408 76.923 55.408Z" fill="#00417A"/>
<path id="Vector_46" d="M60.1408 64.2966H56.9767C56.8872 64.2966 56.809 64.319 56.7531 64.3749C56.6972 64.4308 56.6748 64.4979 56.6748 64.5985V78.0265C56.6748 78.1159 56.6972 78.1942 56.7531 78.2501C56.809 78.306 56.8761 78.3284 56.9767 78.3284H60.1408C60.2303 78.3284 60.3085 78.306 60.3644 78.2501C60.4203 78.1942 60.4427 78.1271 60.4427 78.0265V64.5985C60.4427 64.5091 60.4203 64.4308 60.3644 64.3749C60.3085 64.319 60.2414 64.2966 60.1408 64.2966Z" fill="#00417A"/>
<path id="Vector_47" d="M70.7288 64.2966H67.5982C67.5088 64.2966 67.4305 64.319 67.3746 64.3749C67.3187 64.4308 67.2964 64.4979 67.2964 64.5985L67.3187 70.6696C67.3187 70.7255 67.2964 70.7479 67.2628 70.7479C67.2181 70.7479 67.1957 70.7255 67.1846 70.6696L65.6416 64.5538C65.5969 64.3749 65.4963 64.2966 65.3174 64.2966H61.7843C61.6948 64.2966 61.6166 64.319 61.5607 64.3749C61.5048 64.4308 61.4824 64.4979 61.4824 64.5985V78.0265C61.4824 78.1159 61.5048 78.1942 61.5607 78.2501C61.6166 78.306 61.6837 78.3284 61.7843 78.3284H64.9149C65.0043 78.3284 65.0826 78.306 65.1385 78.2501C65.1944 78.1942 65.2168 78.1271 65.2168 78.0265L65.172 71.933C65.172 71.8883 65.1944 71.8659 65.2279 71.8659C65.2727 71.8548 65.295 71.8771 65.3062 71.9107L66.8268 78.0712C66.8715 78.2501 66.9721 78.3284 67.151 78.3284H70.7177C70.8071 78.3284 70.8854 78.306 70.9413 78.2501C70.9972 78.1942 71.0195 78.1271 71.0195 78.0265V64.5985C71.0195 64.5091 70.9972 64.4308 70.9413 64.3749C70.8965 64.319 70.8183 64.2966 70.7288 64.2966Z" fill="#00417A"/>
<path id="Vector_48" d="M75.5366 64.2966H72.3724C72.283 64.2966 72.2047 64.319 72.1488 64.3749C72.0929 64.4308 72.0706 64.4979 72.0706 64.5985V78.0265C72.0706 78.1159 72.0929 78.1942 72.1488 78.2501C72.1935 78.2948 72.2495 78.306 72.3054 78.3172C73.7253 75.3208 74.8993 72.2461 75.8384 69.0931V64.5873C75.8384 64.4979 75.8161 64.4196 75.7602 64.3637C75.7043 64.319 75.6372 64.2966 75.5366 64.2966Z" fill="#00417A"/>
<path id="Vector_49" d="M9.6601 112.496C11.572 112.496 13.2603 112.116 14.7138 111.345C16.1672 110.585 17.2965 109.489 18.1127 108.058C18.9177 106.627 19.3202 104.983 19.3202 103.094V102.657C19.3202 102.546 19.2643 102.434 19.1413 102.344C19.0183 102.255 18.8618 102.21 18.6605 102.21L11.695 101.987C11.2589 101.987 11.0353 102.188 11.0353 102.602V103.798C11.0353 104.301 10.9123 104.692 10.6552 104.972C10.4092 105.251 10.0738 105.386 9.6601 105.386C9.24641 105.386 8.92217 105.251 8.66502 104.972C8.41904 104.692 8.28487 104.301 8.28487 103.798V89.6432C8.28487 89.1401 8.40786 88.7487 8.66502 88.4469C8.91099 88.1562 9.24641 88.0108 9.6601 88.0108C10.0738 88.0108 10.398 88.1562 10.6552 88.4469C10.9012 88.7375 11.0353 89.1401 11.0353 89.6432V90.7501C11.0353 91.1638 11.2589 91.365 11.695 91.365L18.6605 91.1414C18.8618 91.1414 19.0295 91.0743 19.1413 90.9401C19.2531 90.806 19.3202 90.6383 19.3202 90.437V90.2134C19.3202 87.3623 18.4369 85.0927 16.6704 83.4156C14.9038 81.7385 12.5671 80.8999 9.6601 80.8999C6.71958 80.8999 4.37164 81.7385 2.62746 83.4156C0.872092 85.0927 0 87.3511 0 90.2134V103.094C0 105.945 0.883272 108.225 2.64982 109.925C4.40518 111.647 6.75312 112.496 9.6601 112.496Z" fill="#00417A"/>
<path id="Vector_50" d="M38.4168 105.039H29.8188C29.6399 105.039 29.5505 104.95 29.5505 104.771V81.9285C29.5505 81.7273 29.4946 81.5596 29.3716 81.4478C29.2486 81.3359 29.0921 81.2689 28.8908 81.2689H21.9253C21.724 81.2689 21.5563 81.3248 21.4445 81.4478C21.3215 81.5707 21.2656 81.7273 21.2656 81.9285V111.479C21.2656 111.68 21.3215 111.848 21.4445 111.96C21.5563 112.083 21.724 112.139 21.9253 112.139H38.4168C38.618 112.139 38.7857 112.083 38.8975 111.96C39.0093 111.848 39.0764 111.68 39.0764 111.479V105.699C39.0764 105.497 39.0205 105.33 38.8975 105.218C38.7857 105.095 38.618 105.039 38.4168 105.039Z" fill="#00417A"/>
<path id="Vector_51" d="M49.4857 104.95C49.2509 104.659 49.1279 104.256 49.1279 103.753V81.9285C49.1279 81.7273 49.072 81.5596 48.949 81.4478C48.826 81.3359 48.6695 81.2689 48.4682 81.2689H41.5027C41.3014 81.2689 41.1337 81.3248 41.0219 81.4478C40.8989 81.5707 40.843 81.7273 40.843 81.9285V102.971C40.843 104.849 41.2455 106.515 42.0394 107.957C42.5201 108.829 43.1239 109.589 43.8506 110.227C46.1315 108.695 48.3229 107.085 50.4137 105.397C50.0223 105.397 49.7205 105.24 49.4857 104.95Z" fill="#00417A"/>
<path id="Vector_52" d="M59.2798 81.2689H52.3143C52.113 81.2689 51.9453 81.3248 51.8335 81.4478C51.7105 81.5707 51.6546 81.7273 51.6546 81.9285V103.764C51.6546 104.022 51.6211 104.245 51.5652 104.446C54.5728 101.942 57.3791 99.2921 59.9395 96.4969V81.9285C59.9395 81.7273 59.8836 81.5596 59.7606 81.4478C59.6488 81.3248 59.4811 81.2689 59.2798 81.2689Z" fill="#00417A"/>
<path id="Vector_53" d="M62.9581 85.1038C62.1755 86.4231 61.7842 87.9549 61.7842 89.6879C61.7842 91.0967 62.0413 92.3713 62.5333 93.5117C65.8316 89.5425 68.6715 85.3274 70.9971 80.9111C69.2193 80.9334 67.6428 81.3024 66.2564 82.0068C64.8477 82.7559 63.7408 83.7845 62.9581 85.1038Z" fill="#00417A"/>
<path id="Vector_54" d="M7.77058 72.8163C10.1521 74.5157 13.0143 75.8239 16.335 76.7742C19.6556 77.7134 23.3005 78.183 27.2585 78.183C31.2164 78.183 34.8502 77.7246 38.182 76.819C41.5027 75.9133 44.3649 74.6052 46.7464 72.9169C49.1279 71.2174 50.995 69.1826 52.3479 66.8011C53.7008 64.4196 54.3716 61.7474 54.3716 58.7957V58.6056C54.3716 56.5372 54.0921 54.7036 53.5219 53.1048C52.9517 51.5059 52.1914 50.0748 51.2187 48.8226C50.2459 47.5703 49.072 46.4523 47.6856 45.4795C46.2992 44.5068 44.7674 43.6459 43.0791 42.8856C45.6507 41.4433 47.7974 39.5873 49.5304 37.3288C51.2522 35.0703 52.1243 32.1522 52.1243 28.5744V28.3843C52.1243 25.7457 51.5317 23.3195 50.3354 21.0945C49.139 18.8696 47.4508 16.9241 45.2482 15.2582C43.0456 13.5923 40.4293 12.3065 37.3882 11.4009C34.347 10.4952 30.9705 10.0368 27.2697 10.0368C23.5689 10.0368 20.1923 10.4952 17.1512 11.4009C14.11 12.3065 11.4826 13.6035 9.29115 15.2582C7.08856 16.9241 5.40028 18.8696 4.20395 21.0945C3.00761 23.3195 2.41504 25.7569 2.41504 28.3843V28.5744C2.41504 32.1522 3.27595 35.0703 5.00895 37.3288C6.73078 39.5873 8.87746 41.4433 11.4602 42.8856C7.88238 44.395 5.10958 46.3964 3.1306 48.912C1.15162 51.4277 0.167725 54.6812 0.167725 58.7063V58.8963C0.167725 61.781 0.838564 64.3972 2.19143 66.7564C3.52192 69.0931 5.3891 71.1168 7.77058 72.8163ZM19.1637 30.4639C19.1637 28.6415 19.8792 27.0426 21.3327 25.6674C22.775 24.2922 24.754 23.599 27.2585 23.599C29.7629 23.599 31.7419 24.3034 33.1842 25.7121C34.6265 27.1209 35.3533 28.7421 35.3533 30.5645V30.7546C35.3533 32.823 34.6154 34.5337 33.1395 35.8865C31.6637 37.2394 29.707 37.9102 27.2585 37.9102C24.8099 37.9102 22.8533 37.217 21.3774 35.8418C19.9016 34.4666 19.1637 32.7336 19.1637 30.6652V30.4639ZM17.7549 56.9062C17.7549 54.7707 18.6382 53.0489 20.3936 51.7295C22.1489 50.4102 24.441 49.7506 27.2697 49.7506C30.0984 49.7506 32.3792 50.4102 34.1458 51.7295C35.9011 53.0489 36.7844 54.7707 36.7844 56.9062V57.0963C36.7844 59.1088 35.9682 60.8418 34.3358 62.3176C32.7035 63.7935 30.3555 64.5314 27.2808 64.5314C24.2062 64.5314 21.847 63.7935 20.2258 62.3176C18.5935 60.8418 17.7773 59.0976 17.7773 57.0963V56.9062H17.7549Z" fill="#00417A"/>
<path id="Vector_55" d="M70.8184 22.3244C70.5836 22.5145 70.3152 22.671 70.0245 22.7828H70.0133C69.6667 22.9282 69.2642 22.8499 68.9959 22.5704C68.135 21.6983 66.8045 20.4461 65.72 19.4398C65.1498 18.9143 64.9261 18.1205 65.1274 17.3714C65.4516 16.1639 65.1274 14.8222 64.1659 13.8942C62.813 12.5972 60.6104 12.5972 59.2575 13.8942C57.7929 15.2918 57.8041 17.6174 59.2464 19.0038C59.783 19.5293 60.4427 19.8423 61.1359 19.9541C61.7508 20.0547 62.2875 20.4013 62.6006 20.938C62.6006 20.938 64.6131 24.1245 65.2057 25.2314C65.5858 25.9358 65.3734 26.7184 65.2057 27.0091C63.7298 29.6142 63.5397 32.756 64.6243 35.4952C64.7361 35.7859 64.6131 36.1214 64.3448 36.2779L60.8452 38.2569C60.2974 38.5699 59.6601 38.6035 59.0563 38.4022C57.4686 37.8879 55.6574 38.3128 54.461 39.6545C52.9852 41.3204 53.0187 43.9143 54.5505 45.5355C56.2723 47.3579 59.1457 47.3579 60.8676 45.5802C61.7508 44.6634 62.1533 43.4671 62.0863 42.2931C62.0415 41.5552 62.3434 40.8284 62.9248 40.37L65.5523 38.3128C65.8206 38.1003 66.2007 38.1451 66.4355 38.4022C69.309 41.5887 73.6918 42.4273 77.3702 40.9626C76.2074 34.4666 73.9713 28.2166 70.8184 22.3244Z" fill="#00417A"/>
</g>
</g>
<g id="Group_6">
<path id="Vector_56" d="M140.049 114.945C138.774 114.945 137.701 115.839 137.433 117.036H30.7245H6.57429C6.30596 115.839 5.23261 114.945 3.95802 114.945C2.47099 114.945 1.27466 116.153 1.27466 117.628C1.27466 119.115 2.48217 120.312 3.95802 120.312C5.23261 120.312 6.30596 119.417 6.57429 118.221H28.2089H137.433C137.701 119.417 138.774 120.312 140.049 120.312C141.536 120.312 142.732 119.104 142.732 117.628C142.732 116.141 141.536 114.945 140.049 114.945Z" fill="url(#paint40_linear_507_1429)"/>
</g>
</g>
</g>
<defs>
<linearGradient id="paint0_linear_507_1429" x1="60.453" y1="90.1652" x2="101.501" y2="25.9165" gradientUnits="userSpaceOnUse">
<stop stop-color="#164194"/>
<stop offset="0.3798" stop-color="#0082CA"/>
<stop offset="0.4595" stop-color="#0484C7"/>
<stop offset="0.5376" stop-color="#1088BE"/>
<stop offset="0.6151" stop-color="#2390AE"/>
<stop offset="0.6923" stop-color="#3F9B98"/>
<stop offset="0.7692" stop-color="#63A87C"/>
<stop offset="0.8459" stop-color="#8FB959"/>
<stop offset="0.9226" stop-color="#C2CD30"/>
<stop offset="0.9974" stop-color="#FDE402"/>
<stop offset="1" stop-color="#FFE500"/>
</linearGradient>
<linearGradient id="paint1_linear_507_1429" x1="58.7494" y1="89.077" x2="99.7969" y2="24.8289" gradientUnits="userSpaceOnUse">
<stop stop-color="#164194"/>
<stop offset="0.3798" stop-color="#0082CA"/>
<stop offset="0.4595" stop-color="#0484C7"/>
<stop offset="0.5376" stop-color="#1088BE"/>
<stop offset="0.6151" stop-color="#2390AE"/>
<stop offset="0.6923" stop-color="#3F9B98"/>
<stop offset="0.7692" stop-color="#63A87C"/>
<stop offset="0.8459" stop-color="#8FB959"/>
<stop offset="0.9226" stop-color="#C2CD30"/>
<stop offset="0.9974" stop-color="#FDE402"/>
<stop offset="1" stop-color="#FFE500"/>
</linearGradient>
<linearGradient id="paint2_linear_507_1429" x1="61.1398" y1="90.604" x2="102.187" y2="26.3559" gradientUnits="userSpaceOnUse">
<stop stop-color="#164194"/>
<stop offset="0.3798" stop-color="#0082CA"/>
<stop offset="0.4595" stop-color="#0484C7"/>
<stop offset="0.5376" stop-color="#1088BE"/>
<stop offset="0.6151" stop-color="#2390AE"/>
<stop offset="0.6923" stop-color="#3F9B98"/>
<stop offset="0.7692" stop-color="#63A87C"/>
<stop offset="0.8459" stop-color="#8FB959"/>
<stop offset="0.9226" stop-color="#C2CD30"/>
<stop offset="0.9974" stop-color="#FDE402"/>
<stop offset="1" stop-color="#FFE500"/>
</linearGradient>
<linearGradient id="paint3_linear_507_1429" x1="64.234" y1="92.581" x2="105.281" y2="28.333" gradientUnits="userSpaceOnUse">
<stop stop-color="#164194"/>
<stop offset="0.3798" stop-color="#0082CA"/>
<stop offset="0.4595" stop-color="#0484C7"/>
<stop offset="0.5376" stop-color="#1088BE"/>
<stop offset="0.6151" stop-color="#2390AE"/>
<stop offset="0.6923" stop-color="#3F9B98"/>
<stop offset="0.7692" stop-color="#63A87C"/>
<stop offset="0.8459" stop-color="#8FB959"/>
<stop offset="0.9226" stop-color="#C2CD30"/>
<stop offset="0.9974" stop-color="#FDE402"/>
<stop offset="1" stop-color="#FFE500"/>
</linearGradient>
<linearGradient id="paint4_linear_507_1429" x1="67.4737" y1="94.6508" x2="108.521" y2="30.4028" gradientUnits="userSpaceOnUse">
<stop stop-color="#164194"/>
<stop offset="0.3798" stop-color="#0082CA"/>
<stop offset="0.4595" stop-color="#0484C7"/>
<stop offset="0.5376" stop-color="#1088BE"/>
<stop offset="0.6151" stop-color="#2390AE"/>
<stop offset="0.6923" stop-color="#3F9B98"/>
<stop offset="0.7692" stop-color="#63A87C"/>
<stop offset="0.8459" stop-color="#8FB959"/>
<stop offset="0.9226" stop-color="#C2CD30"/>
<stop offset="0.9974" stop-color="#FDE402"/>
<stop offset="1" stop-color="#FFE500"/>
</linearGradient>
<linearGradient id="paint5_linear_507_1429" x1="72.706" y1="97.9936" x2="113.753" y2="33.7453" gradientUnits="userSpaceOnUse">
<stop stop-color="#164194"/>
<stop offset="0.3798" stop-color="#0082CA"/>
<stop offset="0.4595" stop-color="#0484C7"/>
<stop offset="0.5376" stop-color="#1088BE"/>
<stop offset="0.6151" stop-color="#2390AE"/>
<stop offset="0.6923" stop-color="#3F9B98"/>
<stop offset="0.7692" stop-color="#63A87C"/>
<stop offset="0.8459" stop-color="#8FB959"/>
<stop offset="0.9226" stop-color="#C2CD30"/>
<stop offset="0.9974" stop-color="#FDE402"/>
<stop offset="1" stop-color="#FFE500"/>
</linearGradient>
<linearGradient id="paint6_linear_507_1429" x1="76.6282" y1="100.499" x2="117.676" y2="36.2514" gradientUnits="userSpaceOnUse">
<stop stop-color="#164194"/>
<stop offset="0.3798" stop-color="#0082CA"/>
<stop offset="0.4595" stop-color="#0484C7"/>
<stop offset="0.5376" stop-color="#1088BE"/>
<stop offset="0.6151" stop-color="#2390AE"/>
<stop offset="0.6923" stop-color="#3F9B98"/>
<stop offset="0.7692" stop-color="#63A87C"/>
<stop offset="0.8459" stop-color="#8FB959"/>
<stop offset="0.9226" stop-color="#C2CD30"/>
<stop offset="0.9974" stop-color="#FDE402"/>
<stop offset="1" stop-color="#FFE500"/>
</linearGradient>
<linearGradient id="paint7_linear_507_1429" x1="79.4473" y1="102.301" x2="120.495" y2="38.0528" gradientUnits="userSpaceOnUse">
<stop stop-color="#164194"/>
<stop offset="0.3798" stop-color="#0082CA"/>
<stop offset="0.4595" stop-color="#0484C7"/>
<stop offset="0.5376" stop-color="#1088BE"/>
<stop offset="0.6151" stop-color="#2390AE"/>
<stop offset="0.6923" stop-color="#3F9B98"/>
<stop offset="0.7692" stop-color="#63A87C"/>
<stop offset="0.8459" stop-color="#8FB959"/>
<stop offset="0.9226" stop-color="#C2CD30"/>
<stop offset="0.9974" stop-color="#FDE402"/>
<stop offset="1" stop-color="#FFE500"/>
</linearGradient>
<linearGradient id="paint8_linear_507_1429" x1="82.0209" y1="103.945" x2="123.068" y2="39.6968" gradientUnits="userSpaceOnUse">
<stop stop-color="#164194"/>
<stop offset="0.3798" stop-color="#0082CA"/>
<stop offset="0.4595" stop-color="#0484C7"/>
<stop offset="0.5376" stop-color="#1088BE"/>
<stop offset="0.6151" stop-color="#2390AE"/>
<stop offset="0.6923" stop-color="#3F9B98"/>
<stop offset="0.7692" stop-color="#63A87C"/>
<stop offset="0.8459" stop-color="#8FB959"/>
<stop offset="0.9226" stop-color="#C2CD30"/>
<stop offset="0.9974" stop-color="#FDE402"/>
<stop offset="1" stop-color="#FFE500"/>
</linearGradient>
<linearGradient id="paint9_linear_507_1429" x1="84.6375" y1="105.617" x2="125.685" y2="41.3686" gradientUnits="userSpaceOnUse">
<stop stop-color="#164194"/>
<stop offset="0.3798" stop-color="#0082CA"/>
<stop offset="0.4595" stop-color="#0484C7"/>
<stop offset="0.5376" stop-color="#1088BE"/>
<stop offset="0.6151" stop-color="#2390AE"/>
<stop offset="0.6923" stop-color="#3F9B98"/>
<stop offset="0.7692" stop-color="#63A87C"/>
<stop offset="0.8459" stop-color="#8FB959"/>
<stop offset="0.9226" stop-color="#C2CD30"/>
<stop offset="0.9974" stop-color="#FDE402"/>
<stop offset="1" stop-color="#FFE500"/>
</linearGradient>
<linearGradient id="paint10_linear_507_1429" x1="88.09" y1="107.822" x2="129.138" y2="43.5741" gradientUnits="userSpaceOnUse">
<stop stop-color="#164194"/>
<stop offset="0.3798" stop-color="#0082CA"/>
<stop offset="0.4595" stop-color="#0484C7"/>
<stop offset="0.5376" stop-color="#1088BE"/>
<stop offset="0.6151" stop-color="#2390AE"/>
<stop offset="0.6923" stop-color="#3F9B98"/>
<stop offset="0.7692" stop-color="#63A87C"/>
<stop offset="0.8459" stop-color="#8FB959"/>
<stop offset="0.9226" stop-color="#C2CD30"/>
<stop offset="0.9974" stop-color="#FDE402"/>
<stop offset="1" stop-color="#FFE500"/>
</linearGradient>
<linearGradient id="paint11_linear_507_1429" x1="92.0123" y1="110.328" x2="133.06" y2="46.0799" gradientUnits="userSpaceOnUse">
<stop stop-color="#164194"/>
<stop offset="0.3798" stop-color="#0082CA"/>
<stop offset="0.4595" stop-color="#0484C7"/>
<stop offset="0.5376" stop-color="#1088BE"/>
<stop offset="0.6151" stop-color="#2390AE"/>
<stop offset="0.6923" stop-color="#3F9B98"/>
<stop offset="0.7692" stop-color="#63A87C"/>
<stop offset="0.8459" stop-color="#8FB959"/>
<stop offset="0.9226" stop-color="#C2CD30"/>
<stop offset="0.9974" stop-color="#FDE402"/>
<stop offset="1" stop-color="#FFE500"/>
</linearGradient>
<linearGradient id="paint12_linear_507_1429" x1="94.9132" y1="112.182" x2="135.961" y2="47.9337" gradientUnits="userSpaceOnUse">
<stop stop-color="#164194"/>
<stop offset="0.3798" stop-color="#0082CA"/>
<stop offset="0.4595" stop-color="#0484C7"/>
<stop offset="0.5376" stop-color="#1088BE"/>
<stop offset="0.6151" stop-color="#2390AE"/>
<stop offset="0.6923" stop-color="#3F9B98"/>
<stop offset="0.7692" stop-color="#63A87C"/>
<stop offset="0.8459" stop-color="#8FB959"/>
<stop offset="0.9226" stop-color="#C2CD30"/>
<stop offset="0.9974" stop-color="#FDE402"/>
<stop offset="1" stop-color="#FFE500"/>
</linearGradient>
<linearGradient id="paint13_linear_507_1429" x1="99.5353" y1="115.134" x2="140.583" y2="50.8863" gradientUnits="userSpaceOnUse">
<stop stop-color="#164194"/>
<stop offset="0.3798" stop-color="#0082CA"/>
<stop offset="0.4595" stop-color="#0484C7"/>
<stop offset="0.5376" stop-color="#1088BE"/>
<stop offset="0.6151" stop-color="#2390AE"/>
<stop offset="0.6923" stop-color="#3F9B98"/>
<stop offset="0.7692" stop-color="#63A87C"/>
<stop offset="0.8459" stop-color="#8FB959"/>
<stop offset="0.9226" stop-color="#C2CD30"/>
<stop offset="0.9974" stop-color="#FDE402"/>
<stop offset="1" stop-color="#FFE500"/>
</linearGradient>
<linearGradient id="paint14_linear_507_1429" x1="103.044" y1="117.376" x2="144.092" y2="53.1282" gradientUnits="userSpaceOnUse">
<stop stop-color="#164194"/>
<stop offset="0.3798" stop-color="#0082CA"/>
<stop offset="0.4595" stop-color="#0484C7"/>
<stop offset="0.5376" stop-color="#1088BE"/>
<stop offset="0.6151" stop-color="#2390AE"/>
<stop offset="0.6923" stop-color="#3F9B98"/>
<stop offset="0.7692" stop-color="#63A87C"/>
<stop offset="0.8459" stop-color="#8FB959"/>
<stop offset="0.9226" stop-color="#C2CD30"/>
<stop offset="0.9974" stop-color="#FDE402"/>
<stop offset="1" stop-color="#FFE500"/>
</linearGradient>
<linearGradient id="paint15_linear_507_1429" x1="63.8745" y1="92.3512" x2="104.922" y2="28.1032" gradientUnits="userSpaceOnUse">
<stop stop-color="#164194"/>
<stop offset="0.3798" stop-color="#0082CA"/>
<stop offset="0.4595" stop-color="#0484C7"/>
<stop offset="0.5376" stop-color="#1088BE"/>
<stop offset="0.6151" stop-color="#2390AE"/>
<stop offset="0.6923" stop-color="#3F9B98"/>
<stop offset="0.7692" stop-color="#63A87C"/>
<stop offset="0.8459" stop-color="#8FB959"/>
<stop offset="0.9226" stop-color="#C2CD30"/>
<stop offset="0.9974" stop-color="#FDE402"/>
<stop offset="1" stop-color="#FFE500"/>
</linearGradient>
<linearGradient id="paint16_linear_507_1429" x1="66.5898" y1="94.0861" x2="107.637" y2="29.838" gradientUnits="userSpaceOnUse">
<stop stop-color="#164194"/>
<stop offset="0.3798" stop-color="#0082CA"/>
<stop offset="0.4595" stop-color="#0484C7"/>
<stop offset="0.5376" stop-color="#1088BE"/>
<stop offset="0.6151" stop-color="#2390AE"/>
<stop offset="0.6923" stop-color="#3F9B98"/>
<stop offset="0.7692" stop-color="#63A87C"/>
<stop offset="0.8459" stop-color="#8FB959"/>
<stop offset="0.9226" stop-color="#C2CD30"/>
<stop offset="0.9974" stop-color="#FDE402"/>
<stop offset="1" stop-color="#FFE500"/>
</linearGradient>
<linearGradient id="paint17_linear_507_1429" x1="71.6852" y1="97.3415" x2="112.733" y2="33.0934" gradientUnits="userSpaceOnUse">
<stop stop-color="#164194"/>
<stop offset="0.3798" stop-color="#0082CA"/>
<stop offset="0.4595" stop-color="#0484C7"/>
<stop offset="0.5376" stop-color="#1088BE"/>
<stop offset="0.6151" stop-color="#2390AE"/>
<stop offset="0.6923" stop-color="#3F9B98"/>
<stop offset="0.7692" stop-color="#63A87C"/>
<stop offset="0.8459" stop-color="#8FB959"/>
<stop offset="0.9226" stop-color="#C2CD30"/>
<stop offset="0.9974" stop-color="#FDE402"/>
<stop offset="1" stop-color="#FFE500"/>
</linearGradient>
<linearGradient id="paint18_linear_507_1429" x1="78.2052" y1="101.507" x2="119.253" y2="37.2591" gradientUnits="userSpaceOnUse">
<stop stop-color="#164194"/>
<stop offset="0.3798" stop-color="#0082CA"/>
<stop offset="0.4595" stop-color="#0484C7"/>
<stop offset="0.5376" stop-color="#1088BE"/>
<stop offset="0.6151" stop-color="#2390AE"/>
<stop offset="0.6923" stop-color="#3F9B98"/>
<stop offset="0.7692" stop-color="#63A87C"/>
<stop offset="0.8459" stop-color="#8FB959"/>
<stop offset="0.9226" stop-color="#C2CD30"/>
<stop offset="0.9974" stop-color="#FDE402"/>
<stop offset="1" stop-color="#FFE500"/>
</linearGradient>
<linearGradient id="paint19_linear_507_1429" x1="82.677" y1="104.364" x2="123.724" y2="40.1159" gradientUnits="userSpaceOnUse">
<stop stop-color="#164194"/>
<stop offset="0.3798" stop-color="#0082CA"/>
<stop offset="0.4595" stop-color="#0484C7"/>
<stop offset="0.5376" stop-color="#1088BE"/>
<stop offset="0.6151" stop-color="#2390AE"/>
<stop offset="0.6923" stop-color="#3F9B98"/>
<stop offset="0.7692" stop-color="#63A87C"/>
<stop offset="0.8459" stop-color="#8FB959"/>
<stop offset="0.9226" stop-color="#C2CD30"/>
<stop offset="0.9974" stop-color="#FDE402"/>
<stop offset="1" stop-color="#FFE500"/>
</linearGradient>
<linearGradient id="paint20_linear_507_1429" x1="88.9275" y1="108.357" x2="129.975" y2="44.1093" gradientUnits="userSpaceOnUse">
<stop stop-color="#164194"/>
<stop offset="0.3798" stop-color="#0082CA"/>
<stop offset="0.4595" stop-color="#0484C7"/>
<stop offset="0.5376" stop-color="#1088BE"/>
<stop offset="0.6151" stop-color="#2390AE"/>
<stop offset="0.6923" stop-color="#3F9B98"/>
<stop offset="0.7692" stop-color="#63A87C"/>
<stop offset="0.8459" stop-color="#8FB959"/>
<stop offset="0.9226" stop-color="#C2CD30"/>
<stop offset="0.9974" stop-color="#FDE402"/>
<stop offset="1" stop-color="#FFE500"/>
</linearGradient>
<linearGradient id="paint21_linear_507_1429" x1="93.3204" y1="111.164" x2="134.368" y2="46.9159" gradientUnits="userSpaceOnUse">
<stop stop-color="#164194"/>
<stop offset="0.3798" stop-color="#0082CA"/>
<stop offset="0.4595" stop-color="#0484C7"/>
<stop offset="0.5376" stop-color="#1088BE"/>
<stop offset="0.6151" stop-color="#2390AE"/>
<stop offset="0.6923" stop-color="#3F9B98"/>
<stop offset="0.7692" stop-color="#63A87C"/>
<stop offset="0.8459" stop-color="#8FB959"/>
<stop offset="0.9226" stop-color="#C2CD30"/>
<stop offset="0.9974" stop-color="#FDE402"/>
<stop offset="1" stop-color="#FFE500"/>
</linearGradient>
<linearGradient id="paint22_linear_507_1429" x1="101.67" y1="116.498" x2="142.717" y2="52.2503" gradientUnits="userSpaceOnUse">
<stop stop-color="#164194"/>
<stop offset="0.3798" stop-color="#0082CA"/>
<stop offset="0.4595" stop-color="#0484C7"/>
<stop offset="0.5376" stop-color="#1088BE"/>
<stop offset="0.6151" stop-color="#2390AE"/>
<stop offset="0.6923" stop-color="#3F9B98"/>
<stop offset="0.7692" stop-color="#63A87C"/>
<stop offset="0.8459" stop-color="#8FB959"/>
<stop offset="0.9226" stop-color="#C2CD30"/>
<stop offset="0.9974" stop-color="#FDE402"/>
<stop offset="1" stop-color="#FFE500"/>
</linearGradient>
<linearGradient id="paint23_linear_507_1429" x1="107.35" y1="120.127" x2="148.398" y2="55.8794" gradientUnits="userSpaceOnUse">
<stop stop-color="#164194"/>
<stop offset="0.3798" stop-color="#0082CA"/>
<stop offset="0.4595" stop-color="#0484C7"/>
<stop offset="0.5376" stop-color="#1088BE"/>
<stop offset="0.6151" stop-color="#2390AE"/>
<stop offset="0.6923" stop-color="#3F9B98"/>
<stop offset="0.7692" stop-color="#63A87C"/>
<stop offset="0.8459" stop-color="#8FB959"/>
<stop offset="0.9226" stop-color="#C2CD30"/>
<stop offset="0.9974" stop-color="#FDE402"/>
<stop offset="1" stop-color="#FFE500"/>
</linearGradient>
<linearGradient id="paint24_linear_507_1429" x1="62.5415" y1="91.4995" x2="103.589" y2="27.2515" gradientUnits="userSpaceOnUse">
<stop stop-color="#164194"/>
<stop offset="0.3798" stop-color="#0082CA"/>
<stop offset="0.4595" stop-color="#0484C7"/>
<stop offset="0.5376" stop-color="#1088BE"/>
<stop offset="0.6151" stop-color="#2390AE"/>
<stop offset="0.6923" stop-color="#3F9B98"/>
<stop offset="0.7692" stop-color="#63A87C"/>
<stop offset="0.8459" stop-color="#8FB959"/>
<stop offset="0.9226" stop-color="#C2CD30"/>
<stop offset="0.9974" stop-color="#FDE402"/>
<stop offset="1" stop-color="#FFE500"/>
</linearGradient>
<linearGradient id="paint25_linear_507_1429" x1="72.8978" y1="98.1162" x2="113.945" y2="33.8681" gradientUnits="userSpaceOnUse">
<stop stop-color="#164194"/>
<stop offset="0.3798" stop-color="#0082CA"/>
<stop offset="0.4595" stop-color="#0484C7"/>
<stop offset="0.5376" stop-color="#1088BE"/>
<stop offset="0.6151" stop-color="#2390AE"/>
<stop offset="0.6923" stop-color="#3F9B98"/>
<stop offset="0.7692" stop-color="#63A87C"/>
<stop offset="0.8459" stop-color="#8FB959"/>
<stop offset="0.9226" stop-color="#C2CD30"/>
<stop offset="0.9974" stop-color="#FDE402"/>
<stop offset="1" stop-color="#FFE500"/>
</linearGradient>
<linearGradient id="paint26_linear_507_1429" x1="83.9479" y1="105.176" x2="124.995" y2="40.9279" gradientUnits="userSpaceOnUse">
<stop stop-color="#164194"/>
<stop offset="0.3798" stop-color="#0082CA"/>
<stop offset="0.4595" stop-color="#0484C7"/>
<stop offset="0.5376" stop-color="#1088BE"/>
<stop offset="0.6151" stop-color="#2390AE"/>
<stop offset="0.6923" stop-color="#3F9B98"/>
<stop offset="0.7692" stop-color="#63A87C"/>
<stop offset="0.8459" stop-color="#8FB959"/>
<stop offset="0.9226" stop-color="#C2CD30"/>
<stop offset="0.9974" stop-color="#FDE402"/>
<stop offset="1" stop-color="#FFE500"/>
</linearGradient>
<linearGradient id="paint27_linear_507_1429" x1="101.018" y1="116.082" x2="142.066" y2="51.8339" gradientUnits="userSpaceOnUse">
<stop stop-color="#164194"/>
<stop offset="0.3798" stop-color="#0082CA"/>
<stop offset="0.4595" stop-color="#0484C7"/>
<stop offset="0.5376" stop-color="#1088BE"/>
<stop offset="0.6151" stop-color="#2390AE"/>
<stop offset="0.6923" stop-color="#3F9B98"/>
<stop offset="0.7692" stop-color="#63A87C"/>
<stop offset="0.8459" stop-color="#8FB959"/>
<stop offset="0.9226" stop-color="#C2CD30"/>
<stop offset="0.9974" stop-color="#FDE402"/>
<stop offset="1" stop-color="#FFE500"/>
</linearGradient>
<linearGradient id="paint28_linear_507_1429" x1="115.727" y1="125.479" x2="156.775" y2="61.2314" gradientUnits="userSpaceOnUse">
<stop stop-color="#164194"/>
<stop offset="0.3798" stop-color="#0082CA"/>
<stop offset="0.4595" stop-color="#0484C7"/>
<stop offset="0.5376" stop-color="#1088BE"/>
<stop offset="0.6151" stop-color="#2390AE"/>
<stop offset="0.6923" stop-color="#3F9B98"/>
<stop offset="0.7692" stop-color="#63A87C"/>
<stop offset="0.8459" stop-color="#8FB959"/>
<stop offset="0.9226" stop-color="#C2CD30"/>
<stop offset="0.9974" stop-color="#FDE402"/>
<stop offset="1" stop-color="#FFE500"/>
</linearGradient>
<linearGradient id="paint29_linear_507_1429" x1="54.5774" y1="86.4113" x2="95.6248" y2="22.1632" gradientUnits="userSpaceOnUse">
<stop stop-color="#164194"/>
<stop offset="0.3798" stop-color="#0082CA"/>
<stop offset="0.4595" stop-color="#0484C7"/>
<stop offset="0.5376" stop-color="#1088BE"/>
<stop offset="0.6151" stop-color="#2390AE"/>
<stop offset="0.6923" stop-color="#3F9B98"/>
<stop offset="0.7692" stop-color="#63A87C"/>
<stop offset="0.8459" stop-color="#8FB959"/>
<stop offset="0.9226" stop-color="#C2CD30"/>
<stop offset="0.9974" stop-color="#FDE402"/>
<stop offset="1" stop-color="#FFE500"/>
</linearGradient>
<linearGradient id="paint30_linear_507_1429" x1="57.1677" y1="88.0664" x2="98.2152" y2="23.8183" gradientUnits="userSpaceOnUse">
<stop stop-color="#164194"/>
<stop offset="0.3798" stop-color="#0082CA"/>
<stop offset="0.4595" stop-color="#0484C7"/>
<stop offset="0.5376" stop-color="#1088BE"/>
<stop offset="0.6151" stop-color="#2390AE"/>
<stop offset="0.6923" stop-color="#3F9B98"/>
<stop offset="0.7692" stop-color="#63A87C"/>
<stop offset="0.8459" stop-color="#8FB959"/>
<stop offset="0.9226" stop-color="#C2CD30"/>
<stop offset="0.9974" stop-color="#FDE402"/>
<stop offset="1" stop-color="#FFE500"/>
</linearGradient>
<linearGradient id="paint31_linear_507_1429" x1="50.5558" y1="83.8422" x2="91.6033" y2="19.5941" gradientUnits="userSpaceOnUse">
<stop stop-color="#164194"/>
<stop offset="0.3798" stop-color="#0082CA"/>
<stop offset="0.4595" stop-color="#0484C7"/>
<stop offset="0.5376" stop-color="#1088BE"/>
<stop offset="0.6151" stop-color="#2390AE"/>
<stop offset="0.6923" stop-color="#3F9B98"/>
<stop offset="0.7692" stop-color="#63A87C"/>
<stop offset="0.8459" stop-color="#8FB959"/>
<stop offset="0.9226" stop-color="#C2CD30"/>
<stop offset="0.9974" stop-color="#FDE402"/>
<stop offset="1" stop-color="#FFE500"/>
</linearGradient>
<linearGradient id="paint32_linear_507_1429" x1="56.0232" y1="87.3352" x2="97.0707" y2="23.0872" gradientUnits="userSpaceOnUse">
<stop stop-color="#164194"/>
<stop offset="0.3798" stop-color="#0082CA"/>
<stop offset="0.4595" stop-color="#0484C7"/>
<stop offset="0.5376" stop-color="#1088BE"/>
<stop offset="0.6151" stop-color="#2390AE"/>
<stop offset="0.6923" stop-color="#3F9B98"/>
<stop offset="0.7692" stop-color="#63A87C"/>
<stop offset="0.8459" stop-color="#8FB959"/>
<stop offset="0.9226" stop-color="#C2CD30"/>
<stop offset="0.9974" stop-color="#FDE402"/>
<stop offset="1" stop-color="#FFE500"/>
</linearGradient>
<linearGradient id="paint33_linear_507_1429" x1="60.2788" y1="90.0541" x2="101.326" y2="25.8061" gradientUnits="userSpaceOnUse">
<stop stop-color="#164194"/>
<stop offset="0.3798" stop-color="#0082CA"/>
<stop offset="0.4595" stop-color="#0484C7"/>
<stop offset="0.5376" stop-color="#1088BE"/>
<stop offset="0.6151" stop-color="#2390AE"/>
<stop offset="0.6923" stop-color="#3F9B98"/>
<stop offset="0.7692" stop-color="#63A87C"/>
<stop offset="0.8459" stop-color="#8FB959"/>
<stop offset="0.9226" stop-color="#C2CD30"/>
<stop offset="0.9974" stop-color="#FDE402"/>
<stop offset="1" stop-color="#FFE500"/>
</linearGradient>
<linearGradient id="paint34_linear_507_1429" x1="27.322" y1="68.9985" x2="68.3694" y2="4.75043" gradientUnits="userSpaceOnUse">
<stop stop-color="#164194"/>
<stop offset="0.3798" stop-color="#0082CA"/>
<stop offset="0.4595" stop-color="#0484C7"/>
<stop offset="0.5376" stop-color="#1088BE"/>
<stop offset="0.6151" stop-color="#2390AE"/>
<stop offset="0.6923" stop-color="#3F9B98"/>
<stop offset="0.7692" stop-color="#63A87C"/>
<stop offset="0.8459" stop-color="#8FB959"/>
<stop offset="0.9226" stop-color="#C2CD30"/>
<stop offset="0.9974" stop-color="#FDE402"/>
<stop offset="1" stop-color="#FFE500"/>
</linearGradient>
<linearGradient id="paint35_linear_507_1429" x1="41.9137" y1="78.3209" x2="82.9611" y2="14.0729" gradientUnits="userSpaceOnUse">
<stop stop-color="#164194"/>
<stop offset="0.3798" stop-color="#0082CA"/>
<stop offset="0.4595" stop-color="#0484C7"/>
<stop offset="0.5376" stop-color="#1088BE"/>
<stop offset="0.6151" stop-color="#2390AE"/>
<stop offset="0.6923" stop-color="#3F9B98"/>
<stop offset="0.7692" stop-color="#63A87C"/>
<stop offset="0.8459" stop-color="#8FB959"/>
<stop offset="0.9226" stop-color="#C2CD30"/>
<stop offset="0.9974" stop-color="#FDE402"/>
<stop offset="1" stop-color="#FFE500"/>
</linearGradient>
<linearGradient id="paint36_linear_507_1429" x1="51.4559" y1="84.4172" x2="92.5034" y2="20.1692" gradientUnits="userSpaceOnUse">
<stop stop-color="#164194"/>
<stop offset="0.3798" stop-color="#0082CA"/>
<stop offset="0.4595" stop-color="#0484C7"/>
<stop offset="0.5376" stop-color="#1088BE"/>
<stop offset="0.6151" stop-color="#2390AE"/>
<stop offset="0.6923" stop-color="#3F9B98"/>
<stop offset="0.7692" stop-color="#63A87C"/>
<stop offset="0.8459" stop-color="#8FB959"/>
<stop offset="0.9226" stop-color="#C2CD30"/>
<stop offset="0.9974" stop-color="#FDE402"/>
<stop offset="1" stop-color="#FFE500"/>
</linearGradient>
<linearGradient id="paint37_linear_507_1429" x1="56.6598" y1="87.7419" x2="97.7072" y2="23.4938" gradientUnits="userSpaceOnUse">
<stop stop-color="#164194"/>
<stop offset="0.3798" stop-color="#0082CA"/>
<stop offset="0.4595" stop-color="#0484C7"/>
<stop offset="0.5376" stop-color="#1088BE"/>
<stop offset="0.6151" stop-color="#2390AE"/>
<stop offset="0.6923" stop-color="#3F9B98"/>
<stop offset="0.7692" stop-color="#63A87C"/>
<stop offset="0.8459" stop-color="#8FB959"/>
<stop offset="0.9226" stop-color="#C2CD30"/>
<stop offset="0.9974" stop-color="#FDE402"/>
<stop offset="1" stop-color="#FFE500"/>
</linearGradient>
<linearGradient id="paint38_linear_507_1429" x1="61.9458" y1="91.1192" x2="102.993" y2="26.8711" gradientUnits="userSpaceOnUse">
<stop stop-color="#164194"/>
<stop offset="0.3798" stop-color="#0082CA"/>
<stop offset="0.4595" stop-color="#0484C7"/>
<stop offset="0.5376" stop-color="#1088BE"/>
<stop offset="0.6151" stop-color="#2390AE"/>
<stop offset="0.6923" stop-color="#3F9B98"/>
<stop offset="0.7692" stop-color="#63A87C"/>
<stop offset="0.8459" stop-color="#8FB959"/>
<stop offset="0.9226" stop-color="#C2CD30"/>
<stop offset="0.9974" stop-color="#FDE402"/>
<stop offset="1" stop-color="#FFE500"/>
</linearGradient>
<linearGradient id="paint39_linear_507_1429" x1="48.4517" y1="82.4979" x2="89.4992" y2="18.2499" gradientUnits="userSpaceOnUse">
<stop stop-color="#164194"/>
<stop offset="0.3798" stop-color="#0082CA"/>
<stop offset="0.4595" stop-color="#0484C7"/>
<stop offset="0.5376" stop-color="#1088BE"/>
<stop offset="0.6151" stop-color="#2390AE"/>
<stop offset="0.6923" stop-color="#3F9B98"/>
<stop offset="0.7692" stop-color="#63A87C"/>
<stop offset="0.8459" stop-color="#8FB959"/>
<stop offset="0.9226" stop-color="#C2CD30"/>
<stop offset="0.9974" stop-color="#FDE402"/>
<stop offset="1" stop-color="#FFE500"/>
</linearGradient>
<linearGradient id="paint40_linear_507_1429" x1="3.92585" y1="117.627" x2="141.859" y2="117.627" gradientUnits="userSpaceOnUse">
<stop offset="2.8e-07" stop-color="#F7C019"/>
<stop offset="0.1391" stop-color="#D70C33"/>
<stop offset="0.2598" stop-color="#C4679F"/>
<stop offset="0.2927" stop-color="#C1639C"/>
<stop offset="0.3249" stop-color="#B65794"/>
<stop offset="0.3568" stop-color="#A54487"/>
<stop offset="0.3884" stop-color="#8D2874"/>
<stop offset="0.3983" stop-color="#841E6D"/>
<stop offset="0.4281" stop-color="#74226A"/>
<stop offset="0.4862" stop-color="#492B63"/>
<stop offset="0.5279" stop-color="#27325D"/>
<stop offset="0.662" stop-color="#4B9FB9"/>
<stop offset="0.7737" stop-color="#85B291"/>
<stop offset="0.881" stop-color="#8FB420"/>
<stop offset="0.9972" stop-color="#ABC75D"/>
</linearGradient>
</defs>
</svg>
