<svg width="159" height="134" viewBox="0 0 159 134" fill="none" xmlns="http://www.w3.org/2000/svg">
<g id="Capa_1" clip-path="url(#clip0_507_950)">
<path id="Vector" d="M56.401 116.229C56.5204 116.071 56.6092 115.884 56.6701 115.671C56.2489 116.02 55.8276 116.369 55.4003 116.714C55.4027 116.714 55.4051 116.714 55.4076 116.714C55.8276 116.714 56.1588 116.553 56.401 116.229Z" fill="white"/>
<path id="Vector_2" d="M86.0529 62.9197C86.0529 63.2289 85.9859 63.4797 85.8581 63.6782C85.785 64.5036 85.6998 65.3254 85.5963 66.1436L86.0614 67.7421C86.0797 67.7945 86.1162 67.8201 86.1722 67.8201H86.8881C86.9428 67.8201 86.9708 67.7969 86.9708 67.7519L86.9623 67.7129L86.0163 64.6899C86.0103 64.6704 86.0163 64.6509 86.0346 64.6315C86.3098 64.5012 86.5289 64.2845 86.6908 63.9813C86.8528 63.6782 86.9343 63.3215 86.9343 62.9099C86.9343 62.5325 86.8686 62.1941 86.7371 61.897C86.6056 61.5999 86.4205 61.371 86.1819 61.2079C86.1344 61.175 86.0845 61.1495 86.0346 61.1227C86.0139 61.5378 85.9956 61.9542 85.9676 62.3669C86.0224 62.5252 86.0541 62.7078 86.0541 62.9197H86.0529Z" fill="white"/>
<path id="Vector_3" d="M88.6973 61.0703V67.7226C88.6973 67.7884 88.7277 67.82 88.7898 67.82H91.6825C91.7434 67.82 91.7738 67.7872 91.7738 67.7226V67.1066C91.7738 67.0421 91.7434 67.0092 91.6825 67.0092H89.6165C89.5921 67.0092 89.5799 66.9958 89.5799 66.9702V64.8372C89.5799 64.8116 89.5921 64.7982 89.6165 64.7982H90.8839C90.9447 64.7982 90.9764 64.7654 90.9764 64.7008V64.0848C90.9764 64.0203 90.946 63.9874 90.8839 63.9874H89.6165C89.5921 63.9874 89.5799 63.974 89.5799 63.9484V61.8251C89.5799 61.7996 89.5921 61.7862 89.6165 61.7862H91.6825C91.7434 61.7862 91.7738 61.7533 91.7738 61.6888V61.0727C91.7738 61.007 91.7434 60.9753 91.6825 60.9753H88.7898C88.7289 60.9753 88.6973 61.0082 88.6973 61.0727V61.0703Z" fill="white"/>
<path id="Vector_4" d="M94.1979 65.7856H93.5185C93.4576 65.7856 93.426 65.8185 93.426 65.883V66.1472C93.426 66.6695 93.5745 67.0908 93.8716 67.4146C94.1686 67.7373 94.5582 67.8992 95.0428 67.8992C95.5274 67.8992 95.9194 67.7348 96.2225 67.4049C96.5257 67.075 96.6767 66.6367 96.6767 66.0888C96.6767 65.7893 96.6267 65.53 96.5257 65.3108C96.4246 65.0929 96.281 64.892 96.0947 64.7094C95.9084 64.5268 95.6272 64.2881 95.2546 63.9947C94.8748 63.6952 94.6179 63.4554 94.4828 63.2752C94.3476 63.0962 94.2807 62.8759 94.2807 62.6153C94.2807 62.328 94.3464 62.1052 94.4779 61.9457C94.6094 61.7862 94.7823 61.7059 94.9965 61.7059C95.223 61.7059 95.4068 61.796 95.5481 61.9749C95.6893 62.1539 95.7587 62.3901 95.7587 62.6847V62.9489C95.7587 63.0147 95.7891 63.0463 95.85 63.0463H96.5293C96.5902 63.0463 96.6219 63.0134 96.6219 62.9489V62.7042C96.6219 62.1624 96.4733 61.7266 96.1763 61.393C95.8792 61.0606 95.486 60.8938 94.9965 60.8938C94.5071 60.8938 94.1419 61.0484 93.8485 61.3589C93.555 61.6681 93.4077 62.0882 93.4077 62.6165C93.4077 62.9489 93.4686 63.2399 93.5916 63.487C93.7133 63.7354 93.8643 63.9472 94.0408 64.1226C94.2186 64.2991 94.4633 64.5109 94.775 64.7581C95.0562 64.9797 95.2607 65.1477 95.3861 65.2621C95.5115 65.3766 95.6126 65.5056 95.6893 65.6481C95.766 65.7917 95.8037 65.9585 95.8037 66.1472C95.8037 66.4273 95.7319 66.6549 95.5882 66.8266C95.4446 66.9995 95.2619 67.0859 95.0416 67.0859C94.8212 67.0859 94.6398 66.997 94.4998 66.8169C94.3586 66.6379 94.2892 66.398 94.2892 66.0973V65.8818C94.2892 65.8161 94.2587 65.7844 94.1979 65.7844V65.7856Z" fill="white"/>
<path id="Vector_5" d="M100.028 60.895C99.5267 60.895 99.1225 61.0594 98.8157 61.3893C98.5089 61.7193 98.3567 62.1539 98.3567 62.6957V66.1095C98.3567 66.6513 98.5101 67.0847 98.8157 67.411C99.1213 67.7373 99.5255 67.9004 100.028 67.9004C100.531 67.9004 100.945 67.7373 101.254 67.411C101.564 67.0847 101.718 66.6513 101.718 66.1095V62.6957C101.718 62.1539 101.564 61.7193 101.254 61.3893C100.945 61.0594 100.536 60.895 100.028 60.895ZM100.837 66.1485C100.837 66.4285 100.764 66.6561 100.616 66.8278C100.469 67.0007 100.273 67.0871 100.028 67.0871C99.7836 67.0871 99.5985 67.0007 99.4549 66.8278C99.3112 66.6549 99.2394 66.4285 99.2394 66.1485V62.6458C99.2394 62.3657 99.3112 62.1381 99.4549 61.9664C99.5985 61.7935 99.7897 61.7071 100.028 61.7071C100.267 61.7071 100.469 61.7935 100.616 61.9664C100.764 62.1393 100.837 62.3657 100.837 62.6458V66.1485Z" fill="white"/>
<path id="Vector_6" d="M107.319 63.4286L108.954 67.7433C108.972 67.7957 109.006 67.8212 109.055 67.8212H109.771C109.832 67.8212 109.863 67.7884 109.863 67.7238V61.0715C109.863 61.0058 109.833 60.9741 109.771 60.9741H109.082C109.021 60.9741 108.989 61.007 108.989 61.0715V65.3571C108.989 65.3765 108.983 65.3887 108.971 65.3911C108.959 65.3948 108.949 65.3863 108.943 65.3668L107.309 61.052C107.291 60.9997 107.257 60.9741 107.208 60.9741H106.5C106.44 60.9741 106.409 61.007 106.409 61.0715V67.7238C106.409 67.7896 106.44 67.8212 106.5 67.8212H107.19C107.25 67.8212 107.281 67.7884 107.281 67.7238L107.272 63.4298C107.272 63.4103 107.278 63.4006 107.291 63.4006C107.303 63.4006 107.311 63.4103 107.317 63.4298L107.319 63.4286Z" fill="white"/>
<path id="Vector_7" d="M112.415 67.8212C112.476 67.8212 112.51 67.792 112.516 67.7336L112.727 66.6086C112.727 66.5952 112.732 66.5855 112.74 66.5794C112.75 66.5733 112.76 66.5697 112.773 66.5697H114.251C114.263 66.5697 114.274 66.5733 114.284 66.5794C114.292 66.5855 114.297 66.5952 114.297 66.6086L114.499 67.7336C114.512 67.792 114.544 67.8212 114.6 67.8212H115.316C115.371 67.8212 115.399 67.792 115.399 67.7336V67.7141L114.012 61.0618C114.006 61.0033 113.972 60.9741 113.911 60.9741H113.103C113.048 60.9741 113.014 61.0033 113.002 61.0618L111.633 67.7141C111.627 67.747 111.632 67.7725 111.647 67.792C111.661 67.8115 111.685 67.8212 111.716 67.8212H112.414H112.415ZM113.508 62.4412C113.514 62.4217 113.521 62.412 113.527 62.412C113.533 62.412 113.539 62.4217 113.545 62.4412L114.151 65.7868C114.151 65.8136 114.143 65.8258 114.124 65.8258H112.912C112.894 65.8258 112.884 65.8124 112.884 65.7868L113.508 62.4412Z" fill="white"/>
<path id="Vector_8" d="M118.567 60.895C118.071 60.895 117.672 61.0545 117.369 61.3747C117.066 61.6949 116.915 62.121 116.915 62.6567V66.1302C116.915 66.6647 117.066 67.0944 117.369 67.4171C117.672 67.7397 118.071 67.9016 118.567 67.9016C119.062 67.9016 119.472 67.7397 119.775 67.4171C120.078 67.0944 120.229 66.6659 120.229 66.1302V65.9829C120.229 65.9171 120.198 65.8855 120.136 65.8855L119.439 65.8465C119.378 65.8465 119.347 65.8794 119.347 65.9439V66.1984C119.347 66.4662 119.275 66.6817 119.132 66.8436C118.988 67.0068 118.799 67.0884 118.567 67.0884C118.334 67.0884 118.147 67.0068 118.007 66.8436C117.866 66.6805 117.796 66.4662 117.796 66.1984V62.5983C117.796 62.3316 117.867 62.1162 118.007 61.953C118.148 61.7899 118.334 61.7083 118.567 61.7083C118.799 61.7083 118.987 61.7899 119.132 61.953C119.275 62.1162 119.347 62.3316 119.347 62.5983V62.8527C119.347 62.9185 119.378 62.9501 119.439 62.9501L120.136 62.9112C120.197 62.9112 120.229 62.8783 120.229 62.8138V62.6567C120.229 62.1222 120.077 61.6949 119.775 61.3747C119.472 61.0557 119.07 60.895 118.567 60.895Z" fill="white"/>
<path id="Vector_9" d="M122.204 67.8212H122.901C122.962 67.8212 122.993 67.7884 122.993 67.7238V61.0715C122.993 61.0058 122.962 60.9741 122.901 60.9741H122.204C122.143 60.9741 122.111 61.007 122.111 61.0715V67.7238C122.111 67.7896 122.142 67.8212 122.204 67.8212Z" fill="white"/>
<path id="Vector_10" d="M126.593 67.8992C127.1 67.8992 127.509 67.7361 127.819 67.4098C128.128 67.0835 128.282 66.6501 128.282 66.1083V62.6945C128.282 62.1527 128.128 61.718 127.819 61.3881C127.509 61.0582 127.1 60.8938 126.593 60.8938C126.085 60.8938 125.687 61.0582 125.38 61.3881C125.073 61.718 124.921 62.1527 124.921 62.6945V66.1083C124.921 66.6501 125.074 67.0835 125.38 67.4098C125.686 67.7361 126.09 67.8992 126.593 67.8992ZM125.802 62.6458C125.802 62.3657 125.874 62.1381 126.018 61.9664C126.162 61.7935 126.353 61.7071 126.591 61.7071C126.83 61.7071 127.032 61.7935 127.179 61.9664C127.327 62.1393 127.4 62.3657 127.4 62.6458V66.1485C127.4 66.4285 127.327 66.6561 127.179 66.8278C127.032 67.0007 126.836 67.0871 126.591 67.0871C126.347 67.0871 126.162 67.0007 126.018 66.8278C125.874 66.6549 125.802 66.4285 125.802 66.1485V62.6458Z" fill="white"/>
<path id="Vector_11" d="M130.311 67.8212H131C131.061 67.8212 131.091 67.7884 131.091 67.7238L131.083 63.4298C131.083 63.4103 131.089 63.4006 131.101 63.4006C131.113 63.4006 131.122 63.4103 131.128 63.4298L132.763 67.7445C132.781 67.7969 132.815 67.8225 132.864 67.8225H133.58C133.641 67.8225 133.672 67.7896 133.672 67.7251V61.0727C133.672 61.007 133.642 60.9753 133.58 60.9753H132.891C132.83 60.9753 132.798 61.0082 132.798 61.0727V65.3583C132.798 65.3778 132.792 65.3899 132.78 65.3924C132.768 65.396 132.758 65.3875 132.752 65.368L131.118 61.0533C131.1 61.0009 131.066 60.9753 131.017 60.9753H130.31C130.249 60.9753 130.218 61.0082 130.218 61.0727V67.7251C130.218 67.7908 130.249 67.8225 130.31 67.8225L130.311 67.8212Z" fill="white"/>
<path id="Vector_12" d="M135.527 67.8212H136.224C136.285 67.8212 136.319 67.792 136.325 67.7336L136.536 66.6086C136.536 66.5952 136.541 66.5855 136.549 66.5794C136.559 66.5733 136.569 66.5697 136.582 66.5697H138.06C138.072 66.5697 138.083 66.5733 138.093 66.5794C138.101 66.5855 138.106 66.5952 138.106 66.6086L138.308 67.7336C138.321 67.792 138.354 67.8212 138.41 67.8212H139.125C139.18 67.8212 139.208 67.792 139.208 67.7336V67.7141L137.821 61.0618C137.815 61.0033 137.781 60.9741 137.72 60.9741H136.912C136.857 60.9741 136.823 61.0033 136.811 61.0618L135.443 67.7141C135.436 67.747 135.441 67.7725 135.456 67.792C135.471 67.8115 135.494 67.8212 135.525 67.8212H135.527ZM137.317 62.4412C137.324 62.4217 137.33 62.412 137.336 62.412C137.342 62.412 137.348 62.4217 137.354 62.4412L137.96 65.7868C137.96 65.8136 137.952 65.8258 137.933 65.8258H136.721C136.703 65.8258 136.693 65.8124 136.693 65.7868L137.317 62.4412Z" fill="white"/>
<path id="Vector_13" d="M141.064 67.8212H143.947C144.007 67.8212 144.039 67.7884 144.039 67.7238V67.1078C144.039 67.0433 144.009 67.0104 143.947 67.0104H141.889C141.865 67.0104 141.853 66.997 141.853 66.9714V61.0727C141.853 61.007 141.822 60.9753 141.761 60.9753H141.064C141.003 60.9753 140.971 61.0082 140.971 61.0727V67.7251C140.971 67.7908 141.002 67.8225 141.064 67.8225V67.8212Z" fill="white"/>
<path id="Vector_14" d="M148.473 67.8212H149.979C150.487 67.8212 150.891 67.6544 151.192 67.3221C151.491 66.9897 151.641 66.5392 151.641 65.9719V62.8223C151.641 62.2549 151.491 61.8044 151.192 61.4721C150.892 61.1397 150.488 60.9729 149.979 60.9729H148.473C148.412 60.9729 148.381 61.0058 148.381 61.0703V67.7226C148.381 67.7884 148.411 67.82 148.473 67.82V67.8212ZM149.262 61.8239C149.262 61.7984 149.274 61.785 149.299 61.785H149.969C150.208 61.785 150.398 61.8824 150.539 62.0784C150.68 62.2744 150.75 62.5386 150.75 62.871V65.9232C150.744 66.2556 150.671 66.5185 150.529 66.7109C150.388 66.9033 150.202 66.9994 149.969 66.9994L149.299 67.0092C149.274 67.0092 149.262 66.9958 149.262 66.9702V61.8239Z" fill="white"/>
<path id="Vector_15" d="M153.643 67.8212H156.535C156.596 67.8212 156.627 67.7884 156.627 67.7239V67.1078C156.627 67.0433 156.596 67.0104 156.535 67.0104H154.469C154.445 67.0104 154.433 66.997 154.433 66.9714V64.8384C154.433 64.8128 154.445 64.7995 154.469 64.7995H155.737C155.798 64.7995 155.829 64.7666 155.829 64.7021V64.086C155.829 64.0215 155.799 63.9886 155.737 63.9886H154.469C154.445 63.9886 154.433 63.9752 154.433 63.9497V61.8264C154.433 61.8008 154.445 61.7874 154.469 61.7874H156.535C156.596 61.7874 156.627 61.7545 156.627 61.69V61.074C156.627 61.0082 156.596 60.9766 156.535 60.9766H153.643C153.582 60.9766 153.55 61.0094 153.55 61.074V67.7263C153.55 67.792 153.58 67.8237 153.643 67.8237V67.8212Z" fill="white"/>
<path id="Vector_16" d="M79.5418 86.9722H83.0238C83.1261 86.9722 83.2076 86.943 83.2661 86.8845C83.3245 86.8261 83.3537 86.7457 83.3537 86.6422V76.8269C82.3274 80.2906 81.0284 83.674 79.4736 86.9624C79.4968 86.9661 79.5162 86.9734 79.5418 86.9734V86.9722Z" fill="white"/>
<path id="Vector_17" d="M84.3679 76.0209V82.4553C84.3679 83.8798 84.8087 85.0193 85.6901 85.8703C86.5716 86.7226 87.7391 87.1487 89.194 87.1487C90.1485 87.1487 90.9898 86.9575 91.7166 86.5753C92.4435 86.193 93.0084 85.6463 93.4138 84.9341C93.818 84.2219 94.0201 83.3952 94.0201 82.4553V82.2349C94.0201 82.1765 93.9909 82.1254 93.9312 82.0803C93.8728 82.0365 93.7912 82.0146 93.689 82.0146L90.207 81.905C89.9866 81.905 89.877 82.0085 89.877 82.213V82.8084C89.877 83.058 89.8137 83.2527 89.6895 83.3928C89.5641 83.5328 89.3998 83.6022 89.194 83.6022C88.9883 83.6022 88.8227 83.5328 88.6985 83.3928C88.5731 83.2527 88.511 83.0592 88.511 82.8084V75.7348C88.511 75.4852 88.5731 75.2868 88.6985 75.1394C88.8227 74.9921 88.9883 74.9191 89.194 74.9191C89.3998 74.9191 89.5641 74.9921 89.6895 75.1394C89.8137 75.2868 89.877 75.4852 89.877 75.7348V76.2851C89.877 76.4909 89.9878 76.5931 90.207 76.5931L93.689 76.4835C93.7912 76.4835 93.8716 76.4507 93.9312 76.3849C93.9897 76.3192 94.0201 76.234 94.0201 76.1317V76.0209C94.0201 74.5964 93.5794 73.4654 92.6979 72.6278C91.8165 71.7902 90.6489 71.3713 89.194 71.3713C87.7391 71.3713 86.5533 71.7902 85.6792 72.6278C84.805 73.4654 84.3679 74.5964 84.3679 76.0209Z" fill="white"/>
<path id="Vector_18" d="M95.3191 86.9723H98.8011C98.9033 86.9723 98.9849 86.943 99.0433 86.8846C99.1018 86.8262 99.131 86.7458 99.131 86.6423V71.8779C99.131 71.7756 99.1018 71.6941 99.0433 71.6356C98.9849 71.5772 98.9033 71.548 98.8011 71.548H95.3191C95.2168 71.548 95.1352 71.5772 95.0768 71.6356C95.0183 71.6941 94.9879 71.7756 94.9879 71.8779V86.6423C94.9879 86.7458 95.0171 86.8262 95.0768 86.8846C95.1352 86.943 95.2156 86.9723 95.3191 86.9723Z" fill="white"/>
<path id="Vector_19" d="M103.185 71.8341L100.056 86.6204C100.013 86.8554 100.108 86.9735 100.343 86.9735H103.803C104.008 86.9735 104.125 86.8712 104.156 86.6654L104.42 84.9902C104.449 84.9172 104.5 84.8794 104.574 84.8794H106.513C106.542 84.8794 106.575 84.8904 106.613 84.9123C106.649 84.9342 106.667 84.9671 106.667 85.0121L106.866 86.6642C106.88 86.87 106.998 86.9723 107.219 86.9723H110.767C110.972 86.9723 111.075 86.8846 111.075 86.7081V86.6204L107.946 71.8341C107.902 71.6429 107.776 71.548 107.571 71.548H103.56C103.355 71.548 103.23 71.6442 103.185 71.8341ZM104.97 81.5739L105.566 77.8277C105.58 77.7547 105.606 77.717 105.642 77.717C105.679 77.717 105.704 77.7535 105.719 77.8277L106.203 81.5739C106.203 81.6616 106.167 81.7066 106.093 81.7066H105.1C104.997 81.7066 104.953 81.6628 104.968 81.5739H104.97Z" fill="white"/>
<path id="Vector_20" d="M110.59 71.6356C110.532 71.6941 110.501 71.7756 110.501 71.8779V74.7646C110.501 74.868 110.53 74.9484 110.59 75.0068C110.648 75.0653 110.729 75.0945 110.832 75.0945H113.366C113.453 75.0945 113.499 75.1383 113.499 75.2272V86.6411C113.499 86.7446 113.528 86.8249 113.586 86.8834C113.645 86.9418 113.726 86.971 113.828 86.971H117.31C117.413 86.971 117.494 86.9418 117.553 86.8834C117.611 86.8249 117.64 86.7446 117.64 86.6411V75.2272C117.64 75.1396 117.684 75.0945 117.773 75.0945H120.374C120.476 75.0945 120.558 75.0653 120.616 75.0068C120.674 74.9484 120.705 74.8668 120.705 74.7646V71.8779C120.705 71.7756 120.676 71.6941 120.616 71.6356C120.558 71.5772 120.476 71.548 120.374 71.548H110.832C110.729 71.548 110.648 71.5772 110.59 71.6356Z" fill="white"/>
<path id="Vector_21" d="M122.004 86.9723H125.486C125.588 86.9723 125.67 86.943 125.728 86.8846C125.787 86.8262 125.816 86.7458 125.816 86.6423V71.8779C125.816 71.7756 125.787 71.6941 125.728 71.6356C125.67 71.5772 125.588 71.548 125.486 71.548H122.004C121.902 71.548 121.82 71.5772 121.762 71.6356C121.703 71.6941 121.673 71.7756 121.673 71.8779V86.6423C121.673 86.7458 121.702 86.8262 121.762 86.8846C121.82 86.943 121.9 86.9723 122.004 86.9723Z" fill="white"/>
<path id="Vector_22" d="M137.539 71.8998C137.583 71.6649 137.481 71.5468 137.231 71.5468H133.551C133.33 71.5468 133.212 71.6502 133.197 71.8548L132.294 79.6552C132.294 79.699 132.272 79.7209 132.228 79.7209C132.185 79.7209 132.163 79.699 132.163 79.6552L131.17 71.8548C131.156 71.649 131.038 71.5468 130.819 71.5468H127.028C126.823 71.5468 126.72 71.6344 126.72 71.811V71.8986L129.806 86.6849C129.849 86.8761 129.975 86.971 130.181 86.971H134.038C134.243 86.971 134.367 86.8761 134.413 86.6849L137.541 71.8986L137.539 71.8998Z" fill="white"/>
<path id="Vector_23" d="M136.658 86.9723H140.118C140.323 86.9723 140.44 86.87 140.471 86.6642L140.735 84.989C140.764 84.9159 140.815 84.8782 140.89 84.8782H142.828C142.857 84.8782 142.89 84.8891 142.928 84.9111C142.964 84.933 142.982 84.9658 142.982 85.0109L143.181 86.663C143.195 86.8688 143.314 86.971 143.534 86.971H147.082C147.287 86.971 147.39 86.8834 147.39 86.7068V86.6192L144.261 71.8329C144.217 71.6417 144.092 71.5468 143.886 71.5468H139.875C139.67 71.5468 139.545 71.6429 139.5 71.8329L136.371 86.6192C136.328 86.8542 136.423 86.9723 136.658 86.9723ZM141.285 81.5739L141.881 77.8277C141.895 77.7547 141.921 77.717 141.957 77.717C141.994 77.717 142.019 77.7535 142.034 77.8277L142.519 81.5739C142.519 81.6616 142.482 81.7066 142.408 81.7066H141.415C141.312 81.7066 141.268 81.6628 141.283 81.5739H141.285Z" fill="white"/>
<path id="Vector_24" d="M149.273 79.5906C149.75 80.0167 150.357 80.4866 151.091 81.0004C151.839 81.5288 152.331 81.9147 152.568 82.157C152.802 82.3993 152.921 82.6452 152.921 82.8948C152.921 83.1006 152.862 83.2698 152.744 83.4013C152.626 83.534 152.48 83.5997 152.303 83.5997C152.127 83.5997 151.979 83.5267 151.863 83.3794C151.745 83.232 151.686 83.0421 151.686 82.8059V82.2556C151.686 82.1534 151.657 82.0718 151.598 82.0134C151.54 81.9549 151.458 81.9257 151.356 81.9257H147.918C147.814 81.9257 147.734 81.9549 147.676 82.0134C147.617 82.0718 147.588 82.1534 147.588 82.2556V83.0044C147.588 83.8128 147.783 84.5287 148.172 85.1532C148.562 85.7778 149.109 86.266 149.814 86.6191C150.519 86.9722 151.342 87.1475 152.281 87.1475C153.691 87.1475 154.83 86.7506 155.696 85.958C156.563 85.1642 156.997 84.1001 156.997 82.7633C156.997 82.0438 156.86 81.4156 156.589 80.8787C156.316 80.343 155.942 79.8621 155.465 79.4347C154.988 79.0086 154.278 78.451 153.338 77.7607C152.633 77.2469 152.163 76.8537 151.928 76.5822C151.693 76.3107 151.575 76.0282 151.575 75.7336C151.575 75.484 151.63 75.2855 151.741 75.1382C151.852 74.9909 152.001 74.9179 152.193 74.9179C152.384 74.9179 152.538 74.9873 152.655 75.1273C152.772 75.2673 152.832 75.4463 152.832 75.6666V76.24C152.832 76.3435 152.861 76.4239 152.921 76.4823C152.979 76.5408 153.059 76.57 153.163 76.57H156.578C156.68 76.57 156.762 76.5408 156.82 76.4823C156.879 76.4239 156.908 76.3423 156.908 76.24V75.7555C156.908 74.8886 156.713 74.1253 156.323 73.4642C155.934 72.8031 155.384 72.2893 154.671 71.9216C153.959 71.5552 153.132 71.3713 152.193 71.3713C151.253 71.3713 150.448 71.5552 149.736 71.9216C149.023 72.2893 148.472 72.8031 148.084 73.4642C147.694 74.1253 147.499 74.8886 147.499 75.7555C147.499 76.6223 147.676 77.3346 148.029 77.9811C148.381 78.6275 148.796 79.1632 149.274 79.5893L149.273 79.5906Z" fill="white"/>
<path id="Vector_25" d="M56.6702 115.67C56.6093 115.884 56.5204 116.07 56.4011 116.228C56.1588 116.552 55.8277 116.713 55.4076 116.713C55.4052 116.713 55.4028 116.713 55.4003 116.713C53.0993 118.562 50.6911 120.331 48.1831 122.015C48.6957 122.467 49.2606 122.866 49.8815 123.209C51.4642 124.082 53.3063 124.518 55.4076 124.518C57.509 124.518 59.3024 124.082 60.8851 123.209C62.4678 122.336 63.6963 121.109 64.5692 119.525C65.4421 117.943 65.878 116.116 65.878 114.048V106.935C63.0583 110.005 59.9793 112.92 56.6702 115.671V115.67Z" fill="white"/>
<path id="Vector_26" d="M69.0775 104.353C69.8531 105.775 70.7662 106.955 71.8169 107.891C72.8663 108.828 74.1995 109.862 75.8163 110.993C77.4648 112.157 78.5471 113.004 79.0645 113.538C79.5807 114.071 79.8401 114.613 79.8401 115.162C79.8401 115.615 79.711 115.986 79.4529 116.277C79.1936 116.568 78.8709 116.713 78.4826 116.713C78.0942 116.713 77.7716 116.552 77.5135 116.228C77.2541 115.906 77.1251 115.486 77.1251 114.968V113.757C77.1251 113.532 77.0606 113.353 76.9315 113.224C76.8012 113.095 76.6235 113.03 76.3982 113.03H68.8365C68.61 113.03 68.4323 113.095 68.3032 113.224C68.1729 113.354 68.1096 113.532 68.1096 113.757V115.405C68.1096 117.183 68.5382 118.758 69.3941 120.132C70.25 121.506 71.454 122.58 73.0051 123.355C74.5562 124.131 76.3654 124.519 78.4339 124.519C81.536 124.519 84.0404 123.646 85.9482 121.902C87.8547 120.157 88.808 117.813 88.808 114.873C88.808 113.291 88.5085 111.909 87.9108 110.729C87.313 109.549 86.4887 108.491 85.438 107.554C84.3874 106.616 82.8278 105.389 80.7605 103.87C79.2094 102.739 78.1745 101.874 77.6583 101.276C77.1409 100.679 76.8828 100.057 76.8828 99.41C76.8828 98.8609 77.0033 98.4251 77.2468 98.1012C77.4891 97.7786 77.8203 97.6167 78.2403 97.6167C78.6603 97.6167 78.9988 97.7701 79.2581 98.0769C79.5162 98.3849 79.6465 98.7794 79.6465 99.2639V100.524C79.6465 100.75 79.711 100.928 79.8401 101.057C79.9691 101.186 80.1469 101.251 80.3733 101.251H87.8864C88.1129 101.251 88.2906 101.186 88.4197 101.057C88.5487 100.928 88.6132 100.75 88.6132 100.524V99.4575C88.6132 97.5509 88.1847 95.8708 87.3288 94.4159C86.4717 92.961 85.2603 91.8312 83.6934 91.0228C82.1253 90.2156 80.3076 89.8102 78.2403 89.8102C78.1733 89.8102 78.1088 89.8138 78.0418 89.815C75.4839 94.6691 72.3672 99.3029 68.7439 103.663C68.8474 103.898 68.9558 104.129 69.0787 104.353H69.0775Z" fill="white"/>
<path id="Vector_27" d="M97.1442 123.936C97.2732 124.066 97.451 124.13 97.6774 124.13H105.337C105.563 124.13 105.741 124.065 105.87 123.936C105.999 123.807 106.063 123.629 106.063 123.403V98.2923C106.063 98.0987 106.16 98.0013 106.354 98.0013H112.074C112.299 98.0013 112.478 97.9368 112.607 97.8077C112.736 97.6787 112.801 97.5009 112.801 97.2745V90.9241C112.801 90.6989 112.735 90.5199 112.607 90.3908C112.477 90.2618 112.299 90.1973 112.074 90.1973H91.0848C90.8583 90.1973 90.6805 90.263 90.5515 90.3908C90.4224 90.5199 90.3579 90.6989 90.3579 90.9241V97.2745C90.3579 97.5009 90.4224 97.6787 90.5515 97.8077C90.6805 97.938 90.8583 98.0013 91.0848 98.0013H96.6596C96.8532 98.0013 96.9506 98.0987 96.9506 98.2923V123.403C96.9506 123.629 97.0151 123.807 97.1442 123.936Z" fill="white"/>
<path id="Vector_28" d="M124.339 98.0025H133.598C133.823 98.0025 134.002 97.938 134.131 97.809C134.26 97.6799 134.325 97.5022 134.325 97.2757V90.9253C134.325 90.7001 134.259 90.5211 134.131 90.3921C134.001 90.263 133.823 90.1985 133.598 90.1985H115.662C115.436 90.1985 115.258 90.2642 115.129 90.3921C114.998 90.5211 114.935 90.7001 114.935 90.9253V123.404C114.935 123.631 115 123.808 115.129 123.937C115.258 124.068 115.436 124.131 115.662 124.131H133.598C133.823 124.131 134.002 124.066 134.131 123.937C134.26 123.808 134.325 123.631 134.325 123.404V117.054C134.325 116.828 134.259 116.65 134.131 116.52C134.001 116.391 133.823 116.327 133.598 116.327H124.339C124.145 116.327 124.048 116.229 124.048 116.036V111.334C124.048 111.14 124.145 111.043 124.339 111.043H129.138C129.365 111.043 129.543 110.978 129.672 110.849C129.801 110.72 129.865 110.543 129.865 110.316V103.966C129.865 103.741 129.799 103.562 129.672 103.433C129.541 103.303 129.364 103.239 129.138 103.239H124.339C124.145 103.239 124.048 103.142 124.048 102.948V98.2947C124.048 98.1012 124.145 98.0038 124.339 98.0038V98.0025Z" fill="white"/>
<path id="Vector_29" d="M158.223 123.307L154.296 109.588C154.264 109.426 154.312 109.297 154.441 109.2C155.605 108.327 156.493 107.188 157.108 105.782C157.721 104.376 158.028 102.785 158.028 101.007C158.028 98.9071 157.608 97.0407 156.768 95.4081C155.927 93.7767 154.757 92.4995 153.253 91.5791C151.751 90.6575 150.029 90.1973 148.09 90.1973H137.183C136.957 90.1973 136.779 90.263 136.65 90.3908C136.52 90.5199 136.457 90.6989 136.457 90.9241V123.403C136.457 123.629 136.521 123.807 136.65 123.936C136.779 124.066 136.957 124.13 137.183 124.13H144.843C145.068 124.13 145.247 124.065 145.376 123.936C145.505 123.807 145.57 123.629 145.57 123.403V111.381C145.57 111.188 145.634 111.09 145.763 111.09C145.828 111.09 145.892 111.172 145.957 111.333L148.914 123.5C149.011 123.92 149.269 124.131 149.689 124.131H157.591C158.043 124.131 158.27 123.937 158.27 123.549C158.27 123.452 158.253 123.371 158.222 123.307H158.223ZM148.237 103.359C147.784 103.893 147.202 104.159 146.492 104.159H145.862C145.668 104.159 145.571 104.062 145.571 103.868V98.2935C145.571 98.0999 145.668 98.0025 145.862 98.0025H146.492C147.235 98.0025 147.826 98.2692 148.261 98.8024C148.697 99.3357 148.916 100.104 148.916 101.105C148.916 102.105 148.69 102.825 148.237 103.358V103.359Z" fill="white"/>
<path id="Vector_30" d="M80.0762 67.8992C80.5717 67.8992 80.9723 67.7421 81.2791 67.4292C81.5846 67.1163 81.7381 66.7024 81.7381 66.1874V64.377C81.7381 64.3113 81.7076 64.2796 81.6455 64.2796H80.1212C80.0604 64.2796 80.0287 64.3125 80.0287 64.377V64.9833C80.0287 65.0491 80.0591 65.0807 80.1212 65.0807H80.8189C80.8432 65.0807 80.8554 65.0941 80.8554 65.1197V66.1959C80.8554 66.4638 80.7835 66.6793 80.6399 66.8412C80.4962 67.0043 80.3075 67.0859 80.075 67.0859C79.8424 67.0859 79.6537 67.0043 79.5101 66.8412C79.3664 66.6781 79.2946 66.4638 79.2946 66.1959V62.5958C79.2946 62.3292 79.3664 62.1137 79.5101 61.9506C79.6537 61.7874 79.8424 61.7059 80.075 61.7059C80.3075 61.7059 80.495 61.7874 80.6399 61.9506C80.7835 62.1137 80.8554 62.3292 80.8554 62.5958V63.0268C80.8554 63.0926 80.8858 63.1242 80.9467 63.1242H81.6443C81.7052 63.1242 81.7368 63.0914 81.7368 63.0268V62.6153C81.7368 62.093 81.5834 61.6766 81.2778 61.3625C80.971 61.0496 80.5705 60.8926 80.075 60.8926C79.5795 60.8926 79.1801 61.0484 78.877 61.3625C78.5738 61.6754 78.4229 62.0894 78.4229 62.6056V66.1862C78.4229 66.7012 78.5738 67.1151 78.877 67.428C79.1801 67.7409 79.5795 67.898 80.075 67.898L80.0762 67.8992Z" fill="white"/>
<path id="Vector_31" d="M83.7117 60.9631C83.6508 60.9631 83.6191 60.996 83.6191 61.0605V67.7226C83.6191 67.7883 83.6496 67.82 83.7117 67.82H84.4093C84.4702 67.82 84.5006 67.7871 84.5006 67.7226V64.8165C84.5006 64.7909 84.5128 64.7775 84.5371 64.7775H85.1702C85.1885 64.7775 85.2006 64.7872 85.2067 64.8067L85.5951 66.1423C85.6986 65.3242 85.7838 64.5011 85.8569 63.6769C85.8447 63.6964 85.835 63.7171 85.8216 63.7353C85.6682 63.9411 85.4661 64.0434 85.2153 64.0434H84.5359C84.5116 64.0434 84.4994 64.03 84.4994 64.0044V61.8129C84.4994 61.7874 84.5116 61.774 84.5359 61.774H85.2153C85.4661 61.774 85.6682 61.8762 85.8216 62.082C85.8824 62.1636 85.9275 62.261 85.964 62.3669C85.992 61.9529 86.0103 61.5378 86.031 61.1226C85.8277 61.0179 85.6024 60.9631 85.3528 60.9631H83.7092H83.7117Z" fill="white"/>
<path id="Vector_32" d="M66.1008 71.548H62.6188C62.5165 71.548 62.4349 71.5772 62.3765 71.6356C62.318 71.6941 62.2876 71.7756 62.2876 71.8779V86.6423C62.2876 86.7458 62.3168 86.8262 62.3765 86.8846C62.4349 86.943 62.5153 86.9723 62.6188 86.9723H66.1008C66.203 86.9723 66.2846 86.943 66.343 86.8846C66.4015 86.8262 66.4307 86.7458 66.4307 86.6423V71.8779C66.4307 71.7756 66.4015 71.6941 66.343 71.6356C66.2846 71.5772 66.203 71.548 66.1008 71.548Z" fill="white"/>
<path id="Vector_33" d="M67.6652 71.6356C67.6067 71.6941 67.5763 71.7756 67.5763 71.8779V86.6423C67.5763 86.7458 67.6055 86.8262 67.6652 86.8846C67.7236 86.943 67.804 86.9723 67.9075 86.9723H71.3456C71.4479 86.9723 71.5295 86.943 71.5879 86.8846C71.6463 86.8262 71.6756 86.7458 71.6756 86.6423L71.6317 79.9437C71.6317 79.8999 71.6536 79.8743 71.6975 79.867C71.7413 79.8597 71.7705 79.878 71.7851 79.9218L73.4604 86.6874C73.5042 86.8785 73.6211 86.9735 73.8122 86.9735H77.735C77.8372 86.9735 77.9188 86.9443 77.9772 86.8858C78.0357 86.8274 78.0649 86.747 78.0649 86.6435V71.8791C78.0649 71.7769 78.0357 71.6953 77.9772 71.6368C77.9188 71.5784 77.8372 71.5492 77.735 71.5492H74.2968C74.1945 71.5492 74.113 71.5784 74.0545 71.6368C73.9961 71.6953 73.9669 71.7769 73.9669 71.8791L73.9888 78.5558C73.9888 78.6142 73.9669 78.6435 73.923 78.6435C73.8792 78.6435 73.85 78.6142 73.8354 78.5558L72.1382 71.8353C72.0944 71.6442 71.9763 71.5492 71.7851 71.5492H67.9062C67.804 71.5492 67.7224 71.5784 67.664 71.6368L67.6652 71.6356Z" fill="white"/>
<path id="Vector_34" d="M83.266 71.6356C83.2076 71.5772 83.126 71.548 83.0237 71.548H79.5417C79.4395 71.548 79.3579 71.5772 79.2995 71.6356C79.241 71.6941 79.2106 71.7756 79.2106 71.8779V86.6423C79.2106 86.7458 79.2398 86.8262 79.2995 86.8846C79.3433 86.9284 79.4042 86.9503 79.4736 86.9613C81.0295 83.6729 82.3285 80.2895 83.3537 76.8258V71.8779C83.3537 71.7756 83.3244 71.6941 83.266 71.6356Z" fill="white"/>
<path id="Vector_35" d="M10.6164 124.518C12.7166 124.518 14.5672 124.098 16.1669 123.258C17.7667 122.418 19.0098 121.215 19.8997 119.647C20.7885 118.08 21.2329 116.262 21.2329 114.194V113.709C21.2329 113.58 21.1684 113.467 21.0393 113.37C20.9103 113.272 20.7313 113.225 20.5061 113.225L12.8469 112.983C12.3623 112.983 12.12 113.209 12.12 113.661V114.969C12.12 115.52 11.9825 115.947 11.7085 116.254C11.4334 116.562 11.0693 116.714 10.6177 116.714C10.166 116.714 9.80073 116.561 9.5268 116.254C9.25165 115.947 9.11407 115.52 9.11407 114.969V99.4088C9.11407 98.8597 9.25165 98.4239 9.5268 98.1C9.80073 97.7774 10.1648 97.6155 10.6177 97.6155C11.0706 97.6155 11.4334 97.7774 11.7085 98.1C11.9825 98.4239 12.12 98.8597 12.12 99.4088V100.62C12.12 101.073 12.3623 101.298 12.8469 101.298L20.5061 101.056C20.7313 101.056 20.9103 100.983 21.0393 100.838C21.1684 100.693 21.2329 100.507 21.2329 100.281V100.038C21.2329 96.9044 20.2638 94.4147 18.3243 92.5726C16.3849 90.7306 13.816 89.809 10.6164 89.809C7.4169 89.809 4.80662 90.7306 2.88543 92.5726C0.960594 94.4147 0 96.9044 0 100.038V114.193C0 117.328 0.970333 119.832 2.90857 121.707C4.84801 123.582 7.4169 124.518 10.6164 124.518Z" fill="white"/>
<path id="Vector_36" d="M42.2223 116.326H32.7698C32.5762 116.326 32.4788 116.228 32.4788 116.035V90.9241C32.4788 90.6989 32.4143 90.5199 32.2852 90.3908C32.1562 90.2618 31.9772 90.1973 31.752 90.1973H24.0928C23.8664 90.1973 23.6886 90.263 23.5595 90.3908C23.4293 90.5199 23.366 90.6989 23.366 90.9241V123.403C23.366 123.629 23.4305 123.807 23.5595 123.936C23.6886 124.066 23.8664 124.13 24.0928 124.13H42.2223C42.4476 124.13 42.6265 124.065 42.7556 123.936C42.8846 123.807 42.9492 123.629 42.9492 123.403V117.052C42.9492 116.827 42.8846 116.648 42.7556 116.519C42.6253 116.39 42.4476 116.326 42.2223 116.326Z" fill="white"/>
<path id="Vector_37" d="M54.3898 116.229C54.1305 115.907 54.0014 115.471 54.0014 114.921V90.9253C54.0014 90.7001 53.9369 90.5211 53.8078 90.3921C53.6788 90.263 53.4998 90.1985 53.2746 90.1985H45.6154C45.3889 90.1985 45.2112 90.2642 45.0821 90.3921C44.9519 90.5211 44.8885 90.7001 44.8885 90.9253V114.048C44.8885 116.116 45.3244 117.942 46.1973 119.525C46.7269 120.487 47.3905 121.316 48.1831 122.015C50.6911 120.331 53.0992 118.562 55.4003 116.713C54.9839 116.71 54.6467 116.55 54.3898 116.229Z" fill="white"/>
<path id="Vector_38" d="M65.6844 90.3921C65.5541 90.263 65.3764 90.1985 65.1511 90.1985H57.492C57.2655 90.1985 57.0878 90.2642 56.9587 90.3921C56.8284 90.5211 56.7651 90.7001 56.7651 90.9253V114.921C56.7651 115.199 56.7335 115.449 56.6702 115.671C59.9793 112.92 63.0583 110.004 65.878 106.935V90.9253C65.878 90.7001 65.8135 90.5211 65.6844 90.3921Z" fill="white"/>
<path id="Vector_39" d="M69.198 94.4147C68.3409 95.8684 67.9136 97.5497 67.9136 99.4563C67.9136 101.007 68.1924 102.409 68.7427 103.661C72.3671 99.3017 75.4827 94.6679 78.0406 89.8138C76.0865 89.8394 74.3492 90.24 72.8334 91.0204C71.2653 91.8288 70.0539 92.9598 69.198 94.4135V94.4147Z" fill="white"/>
<path id="Vector_40" d="M117.143 31.2103C114 28.6183 109.354 28.6913 106.295 31.3808C105.63 31.9651 105.082 32.625 104.65 33.3348C103.794 34.7398 102.214 35.5385 100.569 35.4849L95.1085 35.3059C93.3651 35.2487 91.8396 34.1164 91.2856 32.4631C90.7524 30.8743 89.8405 29.3865 88.5524 28.1423C87.3556 26.9856 85.9592 26.1638 84.4799 25.6708C83.0007 25.1777 81.9841 23.8178 81.9573 22.2582L81.8258 14.7195C81.8063 13.6274 82.3846 12.6145 83.3318 12.0715C83.9954 11.6904 84.6004 11.173 85.1057 10.5155C86.8077 8.29486 86.7237 5.11845 84.9024 2.99394C82.4394 0.120682 78.0041 0.197383 75.6422 3.15587C73.8963 5.34246 73.9243 8.52009 75.7031 10.6799C76.2303 11.3203 76.8536 11.8158 77.5305 12.1738C78.496 12.6827 79.1096 13.6749 79.1291 14.767L79.263 22.4603C79.2837 23.6339 78.7371 24.7163 77.8386 25.4127C81.2999 31.8884 83.7519 38.7648 85.0497 45.926C85.9579 45.5644 86.826 45.0738 87.6271 44.4577L91.6558 49.1584C90.1619 51.1819 90.3555 54.0466 92.2146 55.8412C94.238 57.7952 97.4631 57.7392 99.4184 55.7158C101.372 53.6923 101.316 50.4672 99.293 48.5119C97.8284 47.0972 95.7355 46.7417 93.9495 47.4174L89.2293 42.9334C89.9026 42.1518 90.4529 41.302 90.8644 40.4035C91.5681 38.8695 93.1606 37.9405 94.8468 37.9953L99.9675 38.1621C101.806 38.2218 103.395 39.3747 104.131 41.0597C104.618 42.1737 105.357 43.2025 106.348 44.0572C109.492 46.7697 114.25 46.7466 117.36 43.9963C121.247 40.5618 121.142 34.5073 117.143 31.2079V31.2103Z" fill="white"/>
<path id="Vector_41" d="M65.2011 62.9489L65.8987 62.91C65.9596 62.91 65.9912 62.8771 65.9912 62.8126V62.6555C65.9912 62.121 65.839 61.6937 65.5359 61.3735C65.2327 61.0545 64.831 60.8938 64.3281 60.8938C63.8253 60.8938 63.4321 61.0533 63.1301 61.3735C62.827 61.6937 62.6748 62.121 62.6748 62.6555V66.129C62.6748 66.6634 62.827 67.0932 63.1301 67.4159C63.4333 67.7385 63.8326 67.9004 64.3281 67.9004C64.8237 67.9004 65.2327 67.7385 65.5359 67.4159C65.839 67.0932 65.9912 66.6647 65.9912 66.129V65.9829C65.9912 65.9171 65.9608 65.8855 65.8987 65.8855L65.2011 65.8465C65.1402 65.8465 65.1098 65.8794 65.1098 65.9439V66.1984C65.1098 66.4662 65.0379 66.6805 64.8943 66.8436C64.7506 67.0068 64.5619 67.0883 64.3294 67.0883C64.0968 67.0883 63.9093 67.0068 63.7693 66.8436C63.6281 66.6805 63.5587 66.4662 63.5587 66.1984V62.5983C63.5587 62.3304 63.6293 62.1162 63.7693 61.953C63.9106 61.7899 64.0968 61.7083 64.3294 61.7083C64.5619 61.7083 64.7494 61.7899 64.8943 61.953C65.0379 62.1162 65.1098 62.3316 65.1098 62.5983V62.8527C65.1098 62.9185 65.1402 62.9501 65.2011 62.9501V62.9489Z" fill="white"/>
<path id="Vector_42" d="M68.2034 61.3893C67.8978 61.7193 67.7444 62.1539 67.7444 62.6957V66.1095C67.7444 66.6513 67.8978 67.0847 68.2034 67.411C68.509 67.7373 68.9132 67.9004 69.416 67.9004C69.9188 67.9004 70.3328 67.7373 70.642 67.411C70.9512 67.0847 71.1059 66.6513 71.1059 66.1095V62.6957C71.1059 62.1539 70.9512 61.7193 70.642 61.3893C70.3328 61.0594 69.9237 60.895 69.416 60.895C68.9083 60.895 68.5102 61.0594 68.2034 61.3893ZM70.2244 62.647V66.1497C70.2244 66.4297 70.1501 66.6574 70.004 66.829C69.8567 67.0019 69.6607 67.0884 69.416 67.0884C69.1713 67.0884 68.9862 67.0019 68.8426 66.829C68.6989 66.6561 68.6271 66.4297 68.6271 66.1497V62.647C68.6271 62.367 68.6989 62.1393 68.8426 61.9676C68.9862 61.7947 69.1774 61.7083 69.416 61.7083C69.6546 61.7083 69.8567 61.7947 70.004 61.9676C70.1513 62.1405 70.2244 62.367 70.2244 62.647Z" fill="white"/>
<path id="Vector_43" d="M73.9511 63.4286L75.5862 67.7433C75.6044 67.7957 75.6385 67.8212 75.6872 67.8212H76.4031C76.464 67.8212 76.4956 67.7884 76.4956 67.7238V61.0715C76.4956 61.0058 76.4652 60.9741 76.4031 60.9741H75.714C75.6531 60.9741 75.6227 61.007 75.6227 61.0715V65.3571C75.6227 65.3765 75.6166 65.3887 75.6044 65.3911C75.5923 65.3948 75.5825 65.3863 75.5764 65.3668L73.9426 61.052C73.9243 60.9997 73.8902 60.9741 73.8415 60.9741H73.1342C73.0733 60.9741 73.0428 61.007 73.0428 61.0715V67.7238C73.0428 67.7896 73.0733 67.8212 73.1342 67.8212H73.8232C73.8841 67.8212 73.9146 67.7884 73.9146 67.7238L73.906 63.4286C73.906 63.4091 73.9121 63.3993 73.9243 63.3993C73.9365 63.3993 73.945 63.4091 73.9511 63.4286Z" fill="white"/>
<path id="Vector_44" d="M81.2791 67.4292C81.5846 67.1163 81.7381 66.7024 81.7381 66.1874V64.377C81.7381 64.3113 81.7076 64.2796 81.6455 64.2796H80.1212C80.0604 64.2796 80.0299 64.3125 80.0299 64.377V64.9833C80.0299 65.0491 80.0604 65.0807 80.1212 65.0807H80.8189C80.8432 65.0807 80.8554 65.0941 80.8554 65.1197V66.1959C80.8554 66.4638 80.7835 66.6781 80.6399 66.8412C80.4962 67.0043 80.3075 67.0859 80.075 67.0859C79.8424 67.0859 79.6537 67.0043 79.5101 66.8412C79.3664 66.6781 79.2946 66.4638 79.2946 66.1959V62.5958C79.2946 62.328 79.3664 62.1137 79.5101 61.9506C79.6537 61.7874 79.8424 61.7059 80.075 61.7059C80.3075 61.7059 80.495 61.7874 80.6399 61.9506C80.7835 62.1137 80.8554 62.3292 80.8554 62.5958V63.0268C80.8554 63.0926 80.8858 63.1242 80.9467 63.1242H81.6443C81.7052 63.1242 81.7368 63.0914 81.7368 63.0268V62.6153C81.7368 62.093 81.5834 61.6766 81.2778 61.3625C80.971 61.0496 80.5705 60.8926 80.075 60.8926C79.5795 60.8926 79.1801 61.0484 78.877 61.3625C78.5738 61.6754 78.4229 62.0894 78.4229 62.6056V66.1862C78.4229 66.7012 78.5738 67.1151 78.877 67.428C79.1801 67.7409 79.5795 67.898 80.075 67.898C80.5705 67.898 80.971 67.7409 81.2778 67.428L81.2791 67.4292Z" fill="white"/>
<path id="Vector_45" d="M84.5383 61.7752H85.2177C85.4685 61.7752 85.6706 61.8775 85.824 62.0832C85.8849 62.1648 85.9299 62.2622 85.9677 62.3681C85.9957 61.9542 86.0139 61.539 86.0346 61.1238C85.8313 61.0191 85.6061 60.9644 85.3553 60.9644H83.7117C83.6508 60.9644 83.6191 60.9972 83.6191 61.0618V67.7238C83.6191 67.7896 83.6496 67.8212 83.7117 67.8212H84.4093C84.4702 67.8212 84.5006 67.7883 84.5006 67.7238V64.8177C84.5006 64.7921 84.5128 64.7787 84.5371 64.7787H85.1702C85.1885 64.7787 85.2006 64.7885 85.2067 64.8079L85.5951 66.1435C85.6986 65.3254 85.7838 64.5024 85.8569 63.6781C85.8447 63.6976 85.835 63.7183 85.8216 63.7366C85.6682 63.9423 85.4661 64.0446 85.2153 64.0446H84.5359C84.5116 64.0446 84.4994 64.0312 84.4994 64.0056V61.8142C84.4994 61.7886 84.5116 61.7752 84.5359 61.7752H84.5383Z" fill="white"/>
<path id="Vector_46" d="M66.1008 71.548H62.6188C62.5165 71.548 62.4349 71.5772 62.3765 71.6356C62.318 71.6941 62.2876 71.7756 62.2876 71.8779V86.6423C62.2876 86.7458 62.3168 86.8262 62.3765 86.8846C62.4349 86.943 62.5153 86.9723 62.6188 86.9723H66.1008C66.203 86.9723 66.2846 86.943 66.343 86.8846C66.4015 86.8262 66.4307 86.7458 66.4307 86.6423V71.8779C66.4307 71.7756 66.4015 71.6941 66.343 71.6356C66.2846 71.5772 66.203 71.548 66.1008 71.548Z" fill="white"/>
<path id="Vector_47" d="M77.735 71.548H74.2968C74.1945 71.548 74.113 71.5772 74.0545 71.6356C73.9961 71.6941 73.9669 71.7756 73.9669 71.8779L73.9888 78.5546C73.9888 78.613 73.9669 78.6422 73.923 78.6422C73.8792 78.6422 73.85 78.613 73.8354 78.5546L72.1382 71.8341C72.0944 71.6429 71.9763 71.548 71.7851 71.548H67.9062C67.804 71.548 67.7224 71.5772 67.664 71.6356C67.6055 71.6941 67.5751 71.7756 67.5751 71.8779V86.6423C67.5751 86.7458 67.6043 86.8262 67.664 86.8846C67.7224 86.943 67.8027 86.9723 67.9062 86.9723H71.3444C71.4467 86.9723 71.5282 86.943 71.5867 86.8846C71.6451 86.8262 71.6743 86.7458 71.6743 86.6423L71.6305 79.9437C71.6305 79.8999 71.6524 79.8743 71.6963 79.867C71.7401 79.8597 71.7693 79.878 71.7839 79.9218L73.4592 86.6874C73.503 86.8785 73.6199 86.9735 73.811 86.9735H77.7337C77.836 86.9735 77.9176 86.9443 77.976 86.8858C78.0345 86.8274 78.0637 86.747 78.0637 86.6435V71.8791C78.0637 71.7769 78.0345 71.6953 77.976 71.6368C77.9176 71.5784 77.836 71.5492 77.7337 71.5492L77.735 71.548Z" fill="white"/>
<path id="Vector_48" d="M83.0237 71.548H79.5417C79.4395 71.548 79.3579 71.5772 79.2995 71.6356C79.241 71.6941 79.2106 71.7756 79.2106 71.8779V86.6423C79.2106 86.7458 79.2398 86.8262 79.2995 86.8846C79.3433 86.9284 79.4042 86.9503 79.4736 86.9613C81.0295 83.6729 82.3285 80.2895 83.3537 76.8258V71.8779C83.3537 71.7756 83.3244 71.6941 83.266 71.6356C83.2076 71.5772 83.126 71.548 83.0237 71.548Z" fill="white"/>
<path id="Vector_49" d="M10.6164 124.518C12.7166 124.518 14.5672 124.098 16.167 123.258C17.7667 122.418 19.0098 121.215 19.8998 119.647C20.7885 118.08 21.2329 116.262 21.2329 114.194V113.709C21.2329 113.58 21.1684 113.467 21.0393 113.37C20.9103 113.272 20.7313 113.225 20.5061 113.225L12.8469 112.983C12.3623 112.983 12.12 113.209 12.12 113.661V114.969C12.12 115.52 11.9825 115.947 11.7085 116.254C11.4334 116.562 11.0694 116.714 10.6177 116.714C10.166 116.714 9.80074 116.561 9.5268 116.254C9.25165 115.947 9.11408 115.52 9.11408 114.969V99.4088C9.11408 98.8597 9.25165 98.4239 9.5268 98.1C9.80074 97.7774 10.1648 97.6155 10.6177 97.6155C11.0706 97.6155 11.4334 97.7774 11.7085 98.1C11.9825 98.4239 12.12 98.8597 12.12 99.4088V100.62C12.12 101.073 12.3623 101.298 12.8469 101.298L20.5061 101.056C20.7313 101.056 20.9103 100.983 21.0393 100.838C21.1684 100.693 21.2329 100.507 21.2329 100.281V100.038C21.2329 96.9044 20.2638 94.4147 18.3243 92.5726C16.3849 90.7306 13.816 89.809 10.6164 89.809C7.4169 89.809 4.80662 90.7306 2.88544 92.5726C0.961814 94.4147 0.0012207 96.9032 0.0012207 100.038V114.193C0.0012207 117.328 0.971554 119.832 2.90979 121.707C4.84924 123.582 7.41812 124.518 10.6177 124.518H10.6164Z" fill="white"/>
<path id="Vector_50" d="M42.2223 116.326H32.7698C32.5762 116.326 32.4788 116.228 32.4788 116.035V90.9241C32.4788 90.6989 32.4143 90.5199 32.2852 90.3908C32.1562 90.2618 31.9772 90.1973 31.752 90.1973H24.0928C23.8664 90.1973 23.6886 90.263 23.5595 90.3908C23.4305 90.5199 23.366 90.6989 23.366 90.9241V123.403C23.366 123.629 23.4305 123.807 23.5595 123.936C23.6886 124.066 23.8664 124.13 24.0928 124.13H42.2223C42.4476 124.13 42.6265 124.065 42.7556 123.936C42.8846 123.807 42.9492 123.629 42.9492 123.403V117.052C42.9492 116.827 42.8846 116.648 42.7556 116.519C42.6265 116.39 42.4476 116.326 42.2223 116.326Z" fill="white"/>
<path id="Vector_51" d="M54.3898 116.229C54.1305 115.907 54.0014 115.471 54.0014 114.921V90.9253C54.0014 90.7001 53.9369 90.5211 53.8078 90.3921C53.6788 90.263 53.4998 90.1985 53.2746 90.1985H45.6154C45.3889 90.1985 45.2112 90.2642 45.0821 90.3921C44.9531 90.5211 44.8885 90.7001 44.8885 90.9253V114.048C44.8885 116.116 45.3244 117.942 46.1973 119.525C46.7269 120.487 47.3905 121.316 48.1831 122.015C50.6911 120.331 53.0992 118.562 55.4003 116.713C54.9839 116.71 54.6467 116.55 54.3898 116.228V116.229Z" fill="white"/>
<path id="Vector_52" d="M65.1511 90.1973H57.492C57.2655 90.1973 57.0878 90.263 56.9587 90.3908C56.8284 90.5199 56.7651 90.6989 56.7651 90.9241V114.919C56.7651 115.198 56.7335 115.448 56.6702 115.669C59.9793 112.919 63.0583 110.003 65.878 106.934V90.9241C65.878 90.6989 65.8135 90.5199 65.6844 90.3908C65.5541 90.2618 65.3764 90.1973 65.1511 90.1973Z" fill="white"/>
<path id="Vector_53" d="M69.198 94.4147C68.3409 95.8684 67.9136 97.5497 67.9136 99.4563C67.9136 101.007 68.1924 102.409 68.7427 103.661C72.3671 99.3017 75.4827 94.6679 78.0406 89.8138C76.0865 89.8394 74.3492 90.24 72.8334 91.0204C71.2653 91.8288 70.0539 92.9598 69.198 94.4135V94.4147Z" fill="white"/>
<path id="Vector_54" d="M8.54547 80.9091C11.1655 82.7719 14.3029 84.2195 17.959 85.2543C21.6139 86.2892 25.6133 86.8054 29.9585 86.8054C34.3037 86.8054 38.3019 86.3038 41.958 85.3055C45.6129 84.3071 48.7504 82.8741 51.3716 81.0126C53.9916 79.1511 56.0431 76.9109 57.5272 74.2885C59.0089 71.6684 59.7515 68.738 59.7515 65.4958V65.2888C59.7515 63.0134 59.4411 60.996 58.8202 59.2367C58.1993 57.4787 57.3543 55.9106 56.2866 54.5299C55.2164 53.1518 53.9235 51.9282 52.4077 50.858C50.8895 49.7891 49.2008 48.8407 47.3393 48.0128C50.1663 46.4276 52.5282 44.392 54.4251 41.9095C56.3207 39.4271 57.2703 36.2202 57.2703 32.289V32.082C57.2703 29.1856 56.6141 26.5132 55.3053 24.0649C53.9941 21.6178 52.1325 19.4798 49.7195 17.6512C47.304 15.825 44.4259 14.4103 41.0815 13.4095C37.7358 12.4099 34.0298 11.9095 29.961 11.9095C25.8922 11.9095 22.1849 12.4111 18.8405 13.4095C15.4949 14.4103 12.6155 15.825 10.2025 17.6512C7.78698 19.4798 5.92545 21.6178 4.61665 24.0649C3.30542 26.5132 2.65164 29.1856 2.65164 32.082V32.289C2.65164 36.2202 3.59884 39.4271 5.49689 41.9095C7.39251 44.392 9.75443 46.4276 12.5826 48.0128C8.65139 49.6685 5.60038 51.8758 3.42839 54.6334C1.2564 57.3923 0.169189 60.979 0.169189 65.3923V65.5993C0.169189 68.7721 0.909419 71.6514 2.39353 74.2373C3.87521 76.8233 5.92666 79.0476 8.54912 80.9091H8.54547ZM21.0624 34.3587C21.0624 32.3596 21.855 30.6003 23.4414 29.0833C25.0265 27.5676 27.1997 26.8079 29.9585 26.8079C32.7174 26.8079 34.8881 27.5846 36.4757 29.1357C38.0609 30.6868 38.8547 32.4631 38.8547 34.4634V34.6704C38.8547 36.9459 38.0426 38.8256 36.4234 40.3085C34.8017 41.7926 32.648 42.5329 29.9573 42.5329C27.2667 42.5329 25.1117 41.7756 23.4913 40.2574C21.8696 38.7416 21.06 36.8436 21.06 34.5681V34.3611L21.0624 34.3587ZM19.5101 63.4273C19.5101 61.0837 20.4756 59.1856 22.4065 57.738C24.3362 56.2904 26.8552 55.566 29.9585 55.566C33.0619 55.566 35.5784 56.2904 37.5106 57.738C39.4403 59.1868 40.407 61.0837 40.407 63.4273V63.6343C40.407 65.8428 39.5097 67.7555 37.7176 69.3759C35.923 70.9976 33.3371 71.8072 29.9585 71.8072C26.58 71.8072 23.9929 70.9976 22.1995 69.3759C20.405 67.7567 19.5101 65.8428 19.5101 63.6343V63.4273Z" fill="white"/>
<path id="Vector_55" d="M77.8386 25.4139C77.5768 25.6172 77.2858 25.7889 76.9681 25.9192L76.962 25.9216C76.576 26.0811 76.1341 25.991 75.8407 25.6939C74.8922 24.7333 73.4313 23.3552 72.2442 22.2521C71.6221 21.6726 71.3737 20.7984 71.5941 19.9766C71.9496 18.6508 71.5929 17.1789 70.5324 16.161C69.0471 14.7354 66.6268 14.7305 65.1414 16.1562C63.5368 17.6951 63.5441 20.2433 65.128 21.7736C65.721 22.3459 66.4478 22.6904 67.2026 22.8134C67.8722 22.9217 68.4639 23.3089 68.8158 23.8896C68.8158 23.8896 71.0267 27.3923 71.6793 28.6086C72.0933 29.3793 71.868 30.2424 71.683 30.5675C70.0613 33.4249 69.8543 36.8838 71.0438 39.8959C71.1716 40.2185 71.0353 40.5862 70.7333 40.7566L66.8849 42.931C66.2871 43.2695 65.5785 43.306 64.9247 43.0966C63.1801 42.5366 61.1846 43.0004 59.8734 44.4773C58.2456 46.3096 58.287 49.1609 59.9696 50.9433C61.8603 52.9473 65.0185 52.9473 66.9104 50.9883C67.8783 49.9851 68.3215 48.6703 68.246 47.3797C68.1985 46.5652 68.5248 45.7739 69.1689 45.2723L72.0604 43.0151C72.3574 42.7837 72.7763 42.8324 73.0283 43.1112C73.0295 43.1125 73.0319 43.1149 73.0331 43.1161C76.1876 46.6127 81.0113 47.5344 85.0497 45.9285C83.7519 38.766 81.2986 31.8909 77.8386 25.4151V25.4139Z" fill="white"/>
<path id="Vector_56" d="M153.921 127.206C152.516 127.206 151.344 128.188 151.045 129.502H7.22701C6.92873 128.188 5.75507 127.206 4.3501 127.206C2.71989 127.206 1.39771 128.528 1.39771 130.159C1.39771 131.789 2.71989 133.111 4.3501 133.111C5.75507 133.111 6.92751 132.129 7.22701 130.815H151.046C151.344 132.129 152.518 133.111 153.923 133.111C155.553 133.111 156.875 131.789 156.875 130.159C156.875 128.528 155.553 127.206 153.923 127.206H153.921Z" fill="white"/>
</g>
<defs>
<clipPath id="clip0_507_950">
<rect width="158.271" height="132.222" fill="white" transform="translate(0 0.888916)"/>
</clipPath>
</defs>
</svg>
